solid ascii
  facet normal 0.000000e+000 0.000000e+000 -1.000000e+000
    outer loop
      vertex   -4.695229e+001 9.279291e+001 1.050000e+001
      vertex   -4.595229e+001 9.279291e+001 1.050000e+001
      vertex   -4.695229e+001 8.679291e+001 1.050000e+001
    endloop
  endfacet
  facet normal 0.000000e+000 0.000000e+000 -9.863939e-001
    outer loop
      vertex   -4.695229e+001 8.679291e+001 1.050000e+001
      vertex   -4.595229e+001 9.279291e+001 1.050000e+001
      vertex   -4.595229e+001 8.679291e+001 1.050000e+001
    endloop
  endfacet
  facet normal 0.000000e+000 1.000000e+000 0.000000e+000
    outer loop
      vertex   -4.695229e+001 8.679291e+001 4.500000e+000
      vertex   -4.695229e+001 8.679291e+001 1.050000e+001
      vertex   -4.595229e+001 8.679291e+001 4.500000e+000
    endloop
  endfacet
  facet normal 0.000000e+000 1.643990e-001 -0.000000e+000
    outer loop
      vertex   -4.595229e+001 8.679291e+001 4.500000e+000
      vertex   -4.695229e+001 8.679291e+001 1.050000e+001
      vertex   -4.595229e+001 8.679291e+001 1.050000e+001
    endloop
  endfacet
  facet normal 0.000000e+000 0.000000e+000 1.000000e+000
    outer loop
      vertex   -4.695229e+001 8.679291e+001 4.500000e+000
      vertex   -4.595229e+001 8.679291e+001 4.500000e+000
      vertex   -4.695229e+001 9.279291e+001 4.500000e+000
    endloop
  endfacet
  facet normal -0.000000e+000 0.000000e+000 9.863939e-001
    outer loop
      vertex   -4.695229e+001 9.279291e+001 4.500000e+000
      vertex   -4.595229e+001 8.679291e+001 4.500000e+000
      vertex   -4.595229e+001 9.279291e+001 4.500000e+000
    endloop
  endfacet
  facet normal 0.000000e+000 -1.000000e+000 0.000000e+000
    outer loop
      vertex   -4.695229e+001 9.279291e+001 1.050000e+001
      vertex   -4.695229e+001 9.279291e+001 4.500000e+000
      vertex   -4.595229e+001 9.279291e+001 1.050000e+001
    endloop
  endfacet
  facet normal 0.000000e+000 -1.643990e-001 -0.000000e+000
    outer loop
      vertex   -4.595229e+001 9.279291e+001 1.050000e+001
      vertex   -4.695229e+001 9.279291e+001 4.500000e+000
      vertex   -4.595229e+001 9.279291e+001 4.500000e+000
    endloop
  endfacet
  facet normal 0.000000e+000 1.000000e+000 0.000000e+000
    outer loop
      vertex   -4.595229e+001 8.595690e+001 0.000000e+000
      vertex   -4.595229e+001 8.595690e+001 1.500000e+001
      vertex   -3.795229e+001 8.595690e+001 0.000000e+000
    endloop
  endfacet
  facet normal 0.000000e+000 4.705882e-001 -0.000000e+000
    outer loop
      vertex   -3.795229e+001 8.595690e+001 0.000000e+000
      vertex   -4.595229e+001 8.595690e+001 1.500000e+001
      vertex   -3.795229e+001 8.595690e+001 1.500000e+001
    endloop
  endfacet
  facet normal 9.831773e-001 -0.000000e+000 0.000000e+000
    outer loop
      vertex   -4.595229e+001 8.679291e+001 4.500000e+000
      vertex   -4.595229e+001 8.595690e+001 0.000000e+000
      vertex   -4.595229e+001 9.279291e+001 4.500000e+000
    endloop
  endfacet
  facet normal 9.463478e-001 0.000000e+000 0.000000e+000
    outer loop
      vertex   -4.595229e+001 9.279291e+001 4.500000e+000
      vertex   -4.595229e+001 8.595690e+001 0.000000e+000
      vertex   -4.595229e+001 9.395690e+001 0.000000e+000
    endloop
  endfacet
  facet normal 3.555694e-001 -0.000000e+000 0.000000e+000
    outer loop
      vertex   -4.595229e+001 9.279291e+001 4.500000e+000
      vertex   -4.595229e+001 9.395690e+001 0.000000e+000
      vertex   -4.595229e+001 9.395690e+001 1.500000e+001
    endloop
  endfacet
  facet normal 1.826538e-001 0.000000e+000 -0.000000e+000
    outer loop
      vertex   -4.595229e+001 8.679291e+001 4.500000e+000
      vertex   -4.595229e+001 8.679291e+001 1.050000e+001
      vertex   -4.595229e+001 8.595690e+001 0.000000e+000
    endloop
  endfacet
  facet normal 7.936846e-002 0.000000e+000 0.000000e+000
    outer loop
      vertex   -4.595229e+001 8.595690e+001 0.000000e+000
      vertex   -4.595229e+001 8.679291e+001 1.050000e+001
      vertex   -4.595229e+001 8.595690e+001 1.500000e+001
    endloop
  endfacet
  facet normal 7.207876e-001 0.000000e+000 0.000000e+000
    outer loop
      vertex   -4.595229e+001 8.595690e+001 1.500000e+001
      vertex   -4.595229e+001 8.679291e+001 1.050000e+001
      vertex   -4.595229e+001 9.279291e+001 1.050000e+001
    endloop
  endfacet
  facet normal 5.498406e-001 -0.000000e+000 0.000000e+000
    outer loop
      vertex   -4.595229e+001 8.595690e+001 1.500000e+001
      vertex   -4.595229e+001 9.279291e+001 1.050000e+001
      vertex   -4.595229e+001 9.395690e+001 1.500000e+001
    endloop
  endfacet
  facet normal 1.422278e-001 0.000000e+000 0.000000e+000
    outer loop
      vertex   -4.595229e+001 9.395690e+001 1.500000e+001
      vertex   -4.595229e+001 9.279291e+001 1.050000e+001
      vertex   -4.595229e+001 9.279291e+001 4.500000e+000
    endloop
  endfacet
  facet normal 0.000000e+000 -1.000000e+000 0.000000e+000
    outer loop
      vertex   -3.795229e+001 9.395690e+001 0.000000e+000
      vertex   -3.795229e+001 9.395690e+001 1.500000e+001
      vertex   -4.595229e+001 9.395690e+001 0.000000e+000
    endloop
  endfacet
  facet normal 0.000000e+000 -4.705882e-001 0.000000e+000
    outer loop
      vertex   -4.595229e+001 9.395690e+001 0.000000e+000
      vertex   -3.795229e+001 9.395690e+001 1.500000e+001
      vertex   -4.595229e+001 9.395690e+001 1.500000e+001
    endloop
  endfacet
  facet normal -1.000000e+000 0.000000e+000 0.000000e+000
    outer loop
      vertex   -3.795229e+001 8.595690e+001 0.000000e+000
      vertex   -3.795229e+001 8.595690e+001 1.500000e+001
      vertex   -3.795229e+001 9.395690e+001 0.000000e+000
    endloop
  endfacet
  facet normal -4.705882e-001 0.000000e+000 0.000000e+000
    outer loop
      vertex   -3.795229e+001 9.395690e+001 0.000000e+000
      vertex   -3.795229e+001 8.595690e+001 1.500000e+001
      vertex   -3.795229e+001 9.395690e+001 1.500000e+001
    endloop
  endfacet
  facet normal 0.000000e+000 0.000000e+000 1.104315e-001
    outer loop
      vertex   -3.795229e+001 9.395690e+001 1.500000e+001
      vertex   -3.795229e+001 8.595690e+001 1.500000e+001
      vertex   -3.695229e+001 8.495690e+001 1.500000e+001
    endloop
  endfacet
  facet normal 0.000000e+000 0.000000e+000 6.246951e-001
    outer loop
      vertex   -3.695229e+001 8.495690e+001 1.500000e+001
      vertex   -3.795229e+001 8.595690e+001 1.500000e+001
      vertex   -4.595229e+001 8.595690e+001 1.500000e+001
    endloop
  endfacet
  facet normal 0.000000e+000 0.000000e+000 1.104315e-001
    outer loop
      vertex   -3.695229e+001 8.495690e+001 1.500000e+001
      vertex   -4.595229e+001 8.595690e+001 1.500000e+001
      vertex   -4.695229e+001 8.495690e+001 1.500000e+001
    endloop
  endfacet
  facet normal 0.000000e+000 0.000000e+000 6.246951e-001
    outer loop
      vertex   -4.695229e+001 8.495690e+001 1.500000e+001
      vertex   -4.595229e+001 8.595690e+001 1.500000e+001
      vertex   -4.595229e+001 9.395690e+001 1.500000e+001
    endloop
  endfacet
  facet normal 0.000000e+000 0.000000e+000 1.104315e-001
    outer loop
      vertex   -4.695229e+001 8.495690e+001 1.500000e+001
      vertex   -4.595229e+001 9.395690e+001 1.500000e+001
      vertex   -4.695229e+001 9.495690e+001 1.500000e+001
    endloop
  endfacet
  facet normal 0.000000e+000 0.000000e+000 6.246951e-001
    outer loop
      vertex   -4.695229e+001 9.495690e+001 1.500000e+001
      vertex   -4.595229e+001 9.395690e+001 1.500000e+001
      vertex   -3.795229e+001 9.395690e+001 1.500000e+001
    endloop
  endfacet
  facet normal -0.000000e+000 0.000000e+000 1.104315e-001
    outer loop
      vertex   -4.695229e+001 9.495690e+001 1.500000e+001
      vertex   -3.795229e+001 9.395690e+001 1.500000e+001
      vertex   -3.695229e+001 9.495690e+001 1.500000e+001
    endloop
  endfacet
  facet normal 0.000000e+000 0.000000e+000 7.071068e-001
    outer loop
      vertex   -3.695229e+001 9.495690e+001 1.500000e+001
      vertex   -3.795229e+001 9.395690e+001 1.500000e+001
      vertex   -3.695229e+001 8.495690e+001 1.500000e+001
    endloop
  endfacet
  facet normal 0.000000e+000 -0.000000e+000 -1.104315e-001
    outer loop
      vertex   -4.595229e+001 9.395690e+001 0.000000e+000
      vertex   -4.595229e+001 8.595690e+001 0.000000e+000
      vertex   -4.695229e+001 8.495690e+001 0.000000e+000
    endloop
  endfacet
  facet normal 0.000000e+000 0.000000e+000 -6.246951e-001
    outer loop
      vertex   -4.695229e+001 8.495690e+001 0.000000e+000
      vertex   -4.595229e+001 8.595690e+001 0.000000e+000
      vertex   -3.795229e+001 8.595690e+001 0.000000e+000
    endloop
  endfacet
  facet normal 0.000000e+000 0.000000e+000 -1.104315e-001
    outer loop
      vertex   -4.695229e+001 8.495690e+001 0.000000e+000
      vertex   -3.795229e+001 8.595690e+001 0.000000e+000
      vertex   -3.695229e+001 8.495690e+001 0.000000e+000
    endloop
  endfacet
  facet normal 0.000000e+000 0.000000e+000 -6.246951e-001
    outer loop
      vertex   -3.695229e+001 8.495690e+001 0.000000e+000
      vertex   -3.795229e+001 8.595690e+001 0.000000e+000
      vertex   -3.795229e+001 9.395690e+001 0.000000e+000
    endloop
  endfacet
  facet normal 0.000000e+000 0.000000e+000 -1.104315e-001
    outer loop
      vertex   -3.695229e+001 8.495690e+001 0.000000e+000
      vertex   -3.795229e+001 9.395690e+001 0.000000e+000
      vertex   -3.695229e+001 9.495690e+001 0.000000e+000
    endloop
  endfacet
  facet normal 0.000000e+000 0.000000e+000 -6.246951e-001
    outer loop
      vertex   -3.695229e+001 9.495690e+001 0.000000e+000
      vertex   -3.795229e+001 9.395690e+001 0.000000e+000
      vertex   -4.595229e+001 9.395690e+001 0.000000e+000
    endloop
  endfacet
  facet normal -0.000000e+000 0.000000e+000 -1.104315e-001
    outer loop
      vertex   -3.695229e+001 9.495690e+001 0.000000e+000
      vertex   -4.595229e+001 9.395690e+001 0.000000e+000
      vertex   -4.695229e+001 9.495690e+001 0.000000e+000
    endloop
  endfacet
  facet normal 0.000000e+000 0.000000e+000 -7.071068e-001
    outer loop
      vertex   -4.695229e+001 9.495690e+001 0.000000e+000
      vertex   -4.595229e+001 9.395690e+001 0.000000e+000
      vertex   -4.695229e+001 8.495690e+001 0.000000e+000
    endloop
  endfacet
  facet normal 0.000000e+000 -1.000000e+000 0.000000e+000
    outer loop
      vertex   -4.695229e+001 8.495690e+001 1.500000e+001
      vertex   -4.695229e+001 8.495690e+001 0.000000e+000
      vertex   -3.695229e+001 8.495690e+001 1.500000e+001
    endloop
  endfacet
  facet normal 0.000000e+000 -5.547002e-001 -0.000000e+000
    outer loop
      vertex   -3.695229e+001 8.495690e+001 1.500000e+001
      vertex   -4.695229e+001 8.495690e+001 0.000000e+000
      vertex   -3.695229e+001 8.495690e+001 0.000000e+000
    endloop
  endfacet
  facet normal -4.979967e-001 -0.000000e+000 0.000000e+000
    outer loop
      vertex   -4.695229e+001 9.279291e+001 4.500000e+000
      vertex   -4.695229e+001 8.495690e+001 0.000000e+000
      vertex   -4.695229e+001 8.679291e+001 4.500000e+000
    endloop
  endfacet
  facet normal -5.316035e-001 -0.000000e+000 0.000000e+000
    outer loop
      vertex   -4.695229e+001 8.679291e+001 4.500000e+000
      vertex   -4.695229e+001 8.495690e+001 0.000000e+000
      vertex   -4.695229e+001 8.495690e+001 1.500000e+001
    endloop
  endfacet
  facet normal -1.722444e-001 0.000000e+000 0.000000e+000
    outer loop
      vertex   -4.695229e+001 8.679291e+001 4.500000e+000
      vertex   -4.695229e+001 8.495690e+001 1.500000e+001
      vertex   -4.695229e+001 8.679291e+001 1.050000e+001
    endloop
  endfacet
  facet normal -9.259001e-001 0.000000e+000 0.000000e+000
    outer loop
      vertex   -4.695229e+001 8.679291e+001 1.050000e+001
      vertex   -4.695229e+001 8.495690e+001 1.500000e+001
      vertex   -4.695229e+001 9.279291e+001 1.050000e+001
    endloop
  endfacet
  facet normal -9.973333e-001 0.000000e+000 0.000000e+000
    outer loop
      vertex   -4.695229e+001 9.279291e+001 1.050000e+001
      vertex   -4.695229e+001 8.495690e+001 1.500000e+001
      vertex   -4.695229e+001 9.495690e+001 1.500000e+001
    endloop
  endfacet
  facet normal -6.063718e-001 0.000000e+000 0.000000e+000
    outer loop
      vertex   -4.695229e+001 9.279291e+001 1.050000e+001
      vertex   -4.695229e+001 9.495690e+001 1.500000e+001
      vertex   -4.695229e+001 9.495690e+001 0.000000e+000
    endloop
  endfacet
  facet normal -4.979967e-001 0.000000e+000 0.000000e+000
    outer loop
      vertex   -4.695229e+001 8.495690e+001 0.000000e+000
      vertex   -4.695229e+001 9.279291e+001 4.500000e+000
      vertex   -4.695229e+001 9.495690e+001 0.000000e+000
    endloop
  endfacet
  facet normal -2.425487e-001 0.000000e+000 0.000000e+000
    outer loop
      vertex   -4.695229e+001 9.495690e+001 0.000000e+000
      vertex   -4.695229e+001 9.279291e+001 4.500000e+000
      vertex   -4.695229e+001 9.279291e+001 1.050000e+001
    endloop
  endfacet
  facet normal 0.000000e+000 1.000000e+000 0.000000e+000
    outer loop
      vertex   -3.695229e+001 9.495690e+001 1.500000e+001
      vertex   -3.695229e+001 9.495690e+001 0.000000e+000
      vertex   -4.695229e+001 9.495690e+001 1.500000e+001
    endloop
  endfacet
  facet normal 0.000000e+000 5.547002e-001 0.000000e+000
    outer loop
      vertex   -4.695229e+001 9.495690e+001 1.500000e+001
      vertex   -3.695229e+001 9.495690e+001 0.000000e+000
      vertex   -4.695229e+001 9.495690e+001 0.000000e+000
    endloop
  endfacet
  facet normal 1.000000e+000 -0.000000e+000 0.000000e+000
    outer loop
      vertex   -3.695229e+001 8.495690e+001 1.500000e+001
      vertex   -3.695229e+001 8.495690e+001 0.000000e+000
      vertex   -3.695229e+001 9.495690e+001 1.500000e+001
    endloop
  endfacet
  facet normal 5.547002e-001 0.000000e+000 0.000000e+000
    outer loop
      vertex   -3.695229e+001 9.495690e+001 1.500000e+001
      vertex   -3.695229e+001 8.495690e+001 0.000000e+000
      vertex   -3.695229e+001 9.495690e+001 0.000000e+000
    endloop
  endfacet
endsolid
