solid ascii
  facet normal 0.000000e+000 0.000000e+000 -1.000000e+000
    outer loop
      vertex   -4.595229e+001 8.750000e+001 1.000000e+001
      vertex   -4.695229e+001 8.750000e+001 1.000000e+001
      vertex   -4.595229e+001 9.250000e+001 1.000000e+001
    endloop
  endfacet
  facet normal -0.000000e+000 0.000000e+000 -9.805807e-001
    outer loop
      vertex   -4.595229e+001 9.250000e+001 1.000000e+001
      vertex   -4.695229e+001 8.750000e+001 1.000000e+001
      vertex   -4.695229e+001 9.250000e+001 1.000000e+001
    endloop
  endfacet
  facet normal 0.000000e+000 -1.000000e+000 0.000000e+000
    outer loop
      vertex   -4.595229e+001 9.250000e+001 5.000000e+000
      vertex   -4.595229e+001 9.250000e+001 1.000000e+001
      vertex   -4.695229e+001 9.250000e+001 5.000000e+000
    endloop
  endfacet
  facet normal 0.000000e+000 -1.961161e-001 0.000000e+000
    outer loop
      vertex   -4.695229e+001 9.250000e+001 5.000000e+000
      vertex   -4.595229e+001 9.250000e+001 1.000000e+001
      vertex   -4.695229e+001 9.250000e+001 1.000000e+001
    endloop
  endfacet
  facet normal 0.000000e+000 0.000000e+000 1.000000e+000
    outer loop
      vertex   -4.595229e+001 9.250000e+001 5.000000e+000
      vertex   -4.695229e+001 9.250000e+001 5.000000e+000
      vertex   -4.595229e+001 8.750000e+001 5.000000e+000
    endloop
  endfacet
  facet normal 0.000000e+000 0.000000e+000 9.805807e-001
    outer loop
      vertex   -4.595229e+001 8.750000e+001 5.000000e+000
      vertex   -4.695229e+001 9.250000e+001 5.000000e+000
      vertex   -4.695229e+001 8.750000e+001 5.000000e+000
    endloop
  endfacet
  facet normal 0.000000e+000 1.000000e+000 0.000000e+000
    outer loop
      vertex   -4.595229e+001 8.750000e+001 1.000000e+001
      vertex   -4.595229e+001 8.750000e+001 5.000000e+000
      vertex   -4.695229e+001 8.750000e+001 1.000000e+001
    endloop
  endfacet
  facet normal 0.000000e+000 1.961161e-001 0.000000e+000
    outer loop
      vertex   -4.695229e+001 8.750000e+001 1.000000e+001
      vertex   -4.595229e+001 8.750000e+001 5.000000e+000
      vertex   -4.695229e+001 8.750000e+001 5.000000e+000
    endloop
  endfacet
  facet normal 0.000000e+000 1.000000e+000 0.000000e+000
    outer loop
      vertex   -4.595229e+001 8.595690e+001 0.000000e+000
      vertex   -4.595229e+001 8.595690e+001 1.500000e+001
      vertex   -3.795229e+001 8.595690e+001 0.000000e+000
    endloop
  endfacet
  facet normal 0.000000e+000 4.705882e-001 -0.000000e+000
    outer loop
      vertex   -3.795229e+001 8.595690e+001 0.000000e+000
      vertex   -4.595229e+001 8.595690e+001 1.500000e+001
      vertex   -3.795229e+001 8.595690e+001 1.500000e+001
    endloop
  endfacet
  facet normal 6.122581e-001 -0.000000e+000 0.000000e+000
    outer loop
      vertex   -4.595229e+001 8.750000e+001 5.000000e+000
      vertex   -4.595229e+001 9.395690e+001 0.000000e+000
      vertex   -4.595229e+001 9.250000e+001 5.000000e+000
    endloop
  endfacet
  facet normal 4.152362e-001 -0.000000e+000 0.000000e+000
    outer loop
      vertex   -4.595229e+001 9.250000e+001 5.000000e+000
      vertex   -4.595229e+001 9.395690e+001 0.000000e+000
      vertex   -4.595229e+001 9.395690e+001 1.500000e+001
    endloop
  endfacet
  facet normal 1.441682e-001 0.000000e+000 0.000000e+000
    outer loop
      vertex   -4.595229e+001 9.250000e+001 5.000000e+000
      vertex   -4.595229e+001 9.395690e+001 1.500000e+001
      vertex   -4.595229e+001 9.250000e+001 1.000000e+001
    endloop
  endfacet
  facet normal 9.600739e-001 0.000000e+000 -0.000000e+000
    outer loop
      vertex   -4.595229e+001 9.250000e+001 1.000000e+001
      vertex   -4.595229e+001 9.395690e+001 1.500000e+001
      vertex   -4.595229e+001 8.750000e+001 1.000000e+001
    endloop
  endfacet
  facet normal 9.360491e-001 0.000000e+000 -0.000000e+000
    outer loop
      vertex   -4.595229e+001 8.750000e+001 1.000000e+001
      vertex   -4.595229e+001 9.395690e+001 1.500000e+001
      vertex   -4.595229e+001 8.595690e+001 1.500000e+001
    endloop
  endfacet
  facet normal 4.371687e-001 0.000000e+000 0.000000e+000
    outer loop
      vertex   -4.595229e+001 8.750000e+001 1.000000e+001
      vertex   -4.595229e+001 8.595690e+001 1.500000e+001
      vertex   -4.595229e+001 8.595690e+001 0.000000e+000
    endloop
  endfacet
  facet normal 6.122581e-001 0.000000e+000 0.000000e+000
    outer loop
      vertex   -4.595229e+001 9.395690e+001 0.000000e+000
      vertex   -4.595229e+001 8.750000e+001 5.000000e+000
      vertex   -4.595229e+001 8.595690e+001 0.000000e+000
    endloop
  endfacet
  facet normal 1.457229e-001 0.000000e+000 0.000000e+000
    outer loop
      vertex   -4.595229e+001 8.595690e+001 0.000000e+000
      vertex   -4.595229e+001 8.750000e+001 5.000000e+000
      vertex   -4.595229e+001 8.750000e+001 1.000000e+001
    endloop
  endfacet
  facet normal 0.000000e+000 -1.000000e+000 0.000000e+000
    outer loop
      vertex   -3.795229e+001 9.395690e+001 0.000000e+000
      vertex   -3.795229e+001 9.395690e+001 1.500000e+001
      vertex   -4.595229e+001 9.395690e+001 0.000000e+000
    endloop
  endfacet
  facet normal 0.000000e+000 -4.705882e-001 0.000000e+000
    outer loop
      vertex   -4.595229e+001 9.395690e+001 0.000000e+000
      vertex   -3.795229e+001 9.395690e+001 1.500000e+001
      vertex   -4.595229e+001 9.395690e+001 1.500000e+001
    endloop
  endfacet
  facet normal -1.000000e+000 0.000000e+000 0.000000e+000
    outer loop
      vertex   -3.795229e+001 8.595690e+001 0.000000e+000
      vertex   -3.795229e+001 8.595690e+001 1.500000e+001
      vertex   -3.795229e+001 9.395690e+001 0.000000e+000
    endloop
  endfacet
  facet normal -4.705882e-001 0.000000e+000 0.000000e+000
    outer loop
      vertex   -3.795229e+001 9.395690e+001 0.000000e+000
      vertex   -3.795229e+001 8.595690e+001 1.500000e+001
      vertex   -3.795229e+001 9.395690e+001 1.500000e+001
    endloop
  endfacet
  facet normal 0.000000e+000 0.000000e+000 1.104315e-001
    outer loop
      vertex   -3.795229e+001 9.395690e+001 1.500000e+001
      vertex   -3.795229e+001 8.595690e+001 1.500000e+001
      vertex   -3.695229e+001 8.495690e+001 1.500000e+001
    endloop
  endfacet
  facet normal 0.000000e+000 0.000000e+000 6.246951e-001
    outer loop
      vertex   -3.695229e+001 8.495690e+001 1.500000e+001
      vertex   -3.795229e+001 8.595690e+001 1.500000e+001
      vertex   -4.595229e+001 8.595690e+001 1.500000e+001
    endloop
  endfacet
  facet normal 0.000000e+000 0.000000e+000 1.104315e-001
    outer loop
      vertex   -3.695229e+001 8.495690e+001 1.500000e+001
      vertex   -4.595229e+001 8.595690e+001 1.500000e+001
      vertex   -4.695229e+001 8.495690e+001 1.500000e+001
    endloop
  endfacet
  facet normal 0.000000e+000 0.000000e+000 6.246951e-001
    outer loop
      vertex   -4.695229e+001 8.495690e+001 1.500000e+001
      vertex   -4.595229e+001 8.595690e+001 1.500000e+001
      vertex   -4.595229e+001 9.395690e+001 1.500000e+001
    endloop
  endfacet
  facet normal 0.000000e+000 0.000000e+000 1.104315e-001
    outer loop
      vertex   -4.695229e+001 8.495690e+001 1.500000e+001
      vertex   -4.595229e+001 9.395690e+001 1.500000e+001
      vertex   -4.695229e+001 9.495690e+001 1.500000e+001
    endloop
  endfacet
  facet normal 0.000000e+000 0.000000e+000 6.246951e-001
    outer loop
      vertex   -4.695229e+001 9.495690e+001 1.500000e+001
      vertex   -4.595229e+001 9.395690e+001 1.500000e+001
      vertex   -3.795229e+001 9.395690e+001 1.500000e+001
    endloop
  endfacet
  facet normal -0.000000e+000 0.000000e+000 1.104315e-001
    outer loop
      vertex   -4.695229e+001 9.495690e+001 1.500000e+001
      vertex   -3.795229e+001 9.395690e+001 1.500000e+001
      vertex   -3.695229e+001 9.495690e+001 1.500000e+001
    endloop
  endfacet
  facet normal 0.000000e+000 0.000000e+000 7.071068e-001
    outer loop
      vertex   -3.695229e+001 9.495690e+001 1.500000e+001
      vertex   -3.795229e+001 9.395690e+001 1.500000e+001
      vertex   -3.695229e+001 8.495690e+001 1.500000e+001
    endloop
  endfacet
  facet normal 0.000000e+000 -0.000000e+000 -1.104315e-001
    outer loop
      vertex   -4.595229e+001 9.395690e+001 0.000000e+000
      vertex   -4.595229e+001 8.595690e+001 0.000000e+000
      vertex   -4.695229e+001 8.495690e+001 0.000000e+000
    endloop
  endfacet
  facet normal 0.000000e+000 0.000000e+000 -6.246951e-001
    outer loop
      vertex   -4.695229e+001 8.495690e+001 0.000000e+000
      vertex   -4.595229e+001 8.595690e+001 0.000000e+000
      vertex   -3.795229e+001 8.595690e+001 0.000000e+000
    endloop
  endfacet
  facet normal 0.000000e+000 0.000000e+000 -1.104315e-001
    outer loop
      vertex   -4.695229e+001 8.495690e+001 0.000000e+000
      vertex   -3.795229e+001 8.595690e+001 0.000000e+000
      vertex   -3.695229e+001 8.495690e+001 0.000000e+000
    endloop
  endfacet
  facet normal 0.000000e+000 0.000000e+000 -6.246951e-001
    outer loop
      vertex   -3.695229e+001 8.495690e+001 0.000000e+000
      vertex   -3.795229e+001 8.595690e+001 0.000000e+000
      vertex   -3.795229e+001 9.395690e+001 0.000000e+000
    endloop
  endfacet
  facet normal 0.000000e+000 0.000000e+000 -1.104315e-001
    outer loop
      vertex   -3.695229e+001 8.495690e+001 0.000000e+000
      vertex   -3.795229e+001 9.395690e+001 0.000000e+000
      vertex   -3.695229e+001 9.495690e+001 0.000000e+000
    endloop
  endfacet
  facet normal 0.000000e+000 0.000000e+000 -6.246951e-001
    outer loop
      vertex   -3.695229e+001 9.495690e+001 0.000000e+000
      vertex   -3.795229e+001 9.395690e+001 0.000000e+000
      vertex   -4.595229e+001 9.395690e+001 0.000000e+000
    endloop
  endfacet
  facet normal -0.000000e+000 0.000000e+000 -1.104315e-001
    outer loop
      vertex   -3.695229e+001 9.495690e+001 0.000000e+000
      vertex   -4.595229e+001 9.395690e+001 0.000000e+000
      vertex   -4.695229e+001 9.495690e+001 0.000000e+000
    endloop
  endfacet
  facet normal 0.000000e+000 0.000000e+000 -7.071068e-001
    outer loop
      vertex   -4.695229e+001 9.495690e+001 0.000000e+000
      vertex   -4.595229e+001 9.395690e+001 0.000000e+000
      vertex   -4.695229e+001 8.495690e+001 0.000000e+000
    endloop
  endfacet
  facet normal 0.000000e+000 -1.000000e+000 0.000000e+000
    outer loop
      vertex   -4.695229e+001 8.495690e+001 1.500000e+001
      vertex   -4.695229e+001 8.495690e+001 0.000000e+000
      vertex   -3.695229e+001 8.495690e+001 1.500000e+001
    endloop
  endfacet
  facet normal 0.000000e+000 -5.547002e-001 -0.000000e+000
    outer loop
      vertex   -3.695229e+001 8.495690e+001 1.500000e+001
      vertex   -4.695229e+001 8.495690e+001 0.000000e+000
      vertex   -3.695229e+001 8.495690e+001 0.000000e+000
    endloop
  endfacet
  facet normal -8.975003e-001 -0.000000e+000 -0.000000e+000
    outer loop
      vertex   -4.695229e+001 9.250000e+001 5.000000e+000
      vertex   -4.695229e+001 9.495690e+001 0.000000e+000
      vertex   -4.695229e+001 8.750000e+001 5.000000e+000
    endloop
  endfacet
  facet normal -9.927912e-001 0.000000e+000 -0.000000e+000
    outer loop
      vertex   -4.695229e+001 8.750000e+001 5.000000e+000
      vertex   -4.695229e+001 9.495690e+001 0.000000e+000
      vertex   -4.695229e+001 8.495690e+001 0.000000e+000
    endloop
  endfacet
  facet normal -6.590466e-001 -0.000000e+000 0.000000e+000
    outer loop
      vertex   -4.695229e+001 8.750000e+001 5.000000e+000
      vertex   -4.695229e+001 8.495690e+001 0.000000e+000
      vertex   -4.695229e+001 8.495690e+001 1.500000e+001
    endloop
  endfacet
  facet normal -4.410140e-001 0.000000e+000 0.000000e+000
    outer loop
      vertex   -4.695229e+001 9.250000e+001 5.000000e+000
      vertex   -4.695229e+001 9.250000e+001 1.000000e+001
      vertex   -4.695229e+001 9.495690e+001 0.000000e+000
    endloop
  endfacet
  facet normal -2.385945e-001 0.000000e+000 0.000000e+000
    outer loop
      vertex   -4.695229e+001 9.495690e+001 0.000000e+000
      vertex   -4.695229e+001 9.250000e+001 1.000000e+001
      vertex   -4.695229e+001 9.495690e+001 1.500000e+001
    endloop
  endfacet
  facet normal -4.998303e-001 0.000000e+000 0.000000e+000
    outer loop
      vertex   -4.695229e+001 9.495690e+001 1.500000e+001
      vertex   -4.695229e+001 9.250000e+001 1.000000e+001
      vertex   -4.695229e+001 8.750000e+001 1.000000e+001
    endloop
  endfacet
  facet normal -5.569138e-001 -0.000000e+000 0.000000e+000
    outer loop
      vertex   -4.695229e+001 9.495690e+001 1.500000e+001
      vertex   -4.695229e+001 8.750000e+001 1.000000e+001
      vertex   -4.695229e+001 8.495690e+001 1.500000e+001
    endloop
  endfacet
  facet normal -2.196822e-001 0.000000e+000 0.000000e+000
    outer loop
      vertex   -4.695229e+001 8.495690e+001 1.500000e+001
      vertex   -4.695229e+001 8.750000e+001 1.000000e+001
      vertex   -4.695229e+001 8.750000e+001 5.000000e+000
    endloop
  endfacet
  facet normal 0.000000e+000 1.000000e+000 0.000000e+000
    outer loop
      vertex   -3.695229e+001 9.495690e+001 1.500000e+001
      vertex   -3.695229e+001 9.495690e+001 0.000000e+000
      vertex   -4.695229e+001 9.495690e+001 1.500000e+001
    endloop
  endfacet
  facet normal 0.000000e+000 5.547002e-001 0.000000e+000
    outer loop
      vertex   -4.695229e+001 9.495690e+001 1.500000e+001
      vertex   -3.695229e+001 9.495690e+001 0.000000e+000
      vertex   -4.695229e+001 9.495690e+001 0.000000e+000
    endloop
  endfacet
  facet normal 1.000000e+000 -0.000000e+000 0.000000e+000
    outer loop
      vertex   -3.695229e+001 8.495690e+001 1.500000e+001
      vertex   -3.695229e+001 8.495690e+001 0.000000e+000
      vertex   -3.695229e+001 9.495690e+001 1.500000e+001
    endloop
  endfacet
  facet normal 5.547002e-001 0.000000e+000 0.000000e+000
    outer loop
      vertex   -3.695229e+001 9.495690e+001 1.500000e+001
      vertex   -3.695229e+001 8.495690e+001 0.000000e+000
      vertex   -3.695229e+001 9.495690e+001 0.000000e+000
    endloop
  endfacet
endsolid
solid ascii
  facet normal 0.000000e+000 1.000000e+000 0.000000e+000
    outer loop
      vertex   -4.567500e+001 8.897000e+001 1.400000e+001
      vertex   -4.567500e+001 8.897000e+001 1.500000e+001
      vertex   -4.244100e+001 8.897000e+001 1.400000e+001
    endloop
  endfacet
  facet normal 0.000000e+000 9.553692e-001 -0.000000e+000
    outer loop
      vertex   -4.244100e+001 8.897000e+001 1.400000e+001
      vertex   -4.567500e+001 8.897000e+001 1.500000e+001
      vertex   -4.244100e+001 8.897000e+001 1.500000e+001
    endloop
  endfacet
  facet normal 1.000000e+000 0.000000e+000 -0.000000e+000
    outer loop
      vertex   -4.567500e+001 9.093000e+001 1.400000e+001
      vertex   -4.567500e+001 9.093000e+001 1.500000e+001
      vertex   -4.567500e+001 8.897000e+001 1.400000e+001
    endloop
  endfacet
  facet normal 8.907618e-001 0.000000e+000 0.000000e+000
    outer loop
      vertex   -4.567500e+001 8.897000e+001 1.400000e+001
      vertex   -4.567500e+001 9.093000e+001 1.500000e+001
      vertex   -4.567500e+001 8.897000e+001 1.500000e+001
    endloop
  endfacet
  facet normal 0.000000e+000 -1.000000e+000 0.000000e+000
    outer loop
      vertex   -4.244100e+001 9.093000e+001 1.400000e+001
      vertex   -4.244100e+001 9.093000e+001 1.500000e+001
      vertex   -4.567500e+001 9.093000e+001 1.400000e+001
    endloop
  endfacet
  facet normal 0.000000e+000 -9.553692e-001 0.000000e+000
    outer loop
      vertex   -4.567500e+001 9.093000e+001 1.400000e+001
      vertex   -4.244100e+001 9.093000e+001 1.500000e+001
      vertex   -4.567500e+001 9.093000e+001 1.500000e+001
    endloop
  endfacet
  facet normal -1.000000e+000 0.000000e+000 0.000000e+000
    outer loop
      vertex   -4.244100e+001 8.897000e+001 1.400000e+001
      vertex   -4.244100e+001 8.897000e+001 1.500000e+001
      vertex   -4.244100e+001 9.093000e+001 1.400000e+001
    endloop
  endfacet
  facet normal -8.907618e-001 0.000000e+000 0.000000e+000
    outer loop
      vertex   -4.244100e+001 9.093000e+001 1.400000e+001
      vertex   -4.244100e+001 8.897000e+001 1.500000e+001
      vertex   -4.244100e+001 9.093000e+001 1.500000e+001
    endloop
  endfacet
  facet normal -0.000000e+000 0.000000e+000 9.544798e-001
    outer loop
      vertex   -4.567500e+001 8.897000e+001 1.500000e+001
      vertex   -4.690000e+001 8.505000e+001 1.500000e+001
      vertex   -4.244100e+001 8.897000e+001 1.500000e+001
    endloop
  endfacet
  facet normal 0.000000e+000 0.000000e+000 9.766571e-001
    outer loop
      vertex   -4.244100e+001 8.897000e+001 1.500000e+001
      vertex   -4.690000e+001 8.505000e+001 1.500000e+001
      vertex   -3.710000e+001 8.505000e+001 1.500000e+001
    endloop
  endfacet
  facet normal -0.000000e+000 0.000000e+000 8.061701e-001
    outer loop
      vertex   -4.244100e+001 8.897000e+001 1.500000e+001
      vertex   -3.710000e+001 8.505000e+001 1.500000e+001
      vertex   -4.244100e+001 9.093000e+001 1.500000e+001
    endloop
  endfacet
  facet normal -0.000000e+000 0.000000e+000 9.945704e-001
    outer loop
      vertex   -4.244100e+001 9.093000e+001 1.500000e+001
      vertex   -3.710000e+001 8.505000e+001 1.500000e+001
      vertex   -3.710000e+001 9.485000e+001 1.500000e+001
    endloop
  endfacet
  facet normal 0.000000e+000 -0.000000e+000 9.766571e-001
    outer loop
      vertex   -4.244100e+001 9.093000e+001 1.500000e+001
      vertex   -3.710000e+001 9.485000e+001 1.500000e+001
      vertex   -4.690000e+001 9.485000e+001 1.500000e+001
    endloop
  endfacet
  facet normal 0.000000e+000 -0.000000e+000 2.982756e-001
    outer loop
      vertex   -4.567500e+001 8.897000e+001 1.500000e+001
      vertex   -4.567500e+001 9.093000e+001 1.500000e+001
      vertex   -4.690000e+001 8.505000e+001 1.500000e+001
    endloop
  endfacet
  facet normal 0.000000e+000 0.000000e+000 2.039547e-001
    outer loop
      vertex   -4.690000e+001 8.505000e+001 1.500000e+001
      vertex   -4.567500e+001 9.093000e+001 1.500000e+001
      vertex   -4.690000e+001 9.485000e+001 1.500000e+001
    endloop
  endfacet
  facet normal 0.000000e+000 0.000000e+000 5.199153e-001
    outer loop
      vertex   -4.690000e+001 9.485000e+001 1.500000e+001
      vertex   -4.567500e+001 9.093000e+001 1.500000e+001
      vertex   -4.244100e+001 9.093000e+001 1.500000e+001
    endloop
  endfacet
  facet normal 0.000000e+000 -0.000000e+000 -2.039547e-001
    outer loop
      vertex   -4.567500e+001 9.093000e+001 1.400000e+001
      vertex   -4.567500e+001 8.897000e+001 1.400000e+001
      vertex   -4.690000e+001 8.505000e+001 1.400000e+001
    endloop
  endfacet
  facet normal 0.000000e+000 0.000000e+000 -5.199153e-001
    outer loop
      vertex   -4.690000e+001 8.505000e+001 1.400000e+001
      vertex   -4.567500e+001 8.897000e+001 1.400000e+001
      vertex   -4.244100e+001 8.897000e+001 1.400000e+001
    endloop
  endfacet
  facet normal 0.000000e+000 0.000000e+000 -6.602556e-001
    outer loop
      vertex   -4.690000e+001 8.505000e+001 1.400000e+001
      vertex   -4.244100e+001 8.897000e+001 1.400000e+001
      vertex   -3.710000e+001 8.505000e+001 1.400000e+001
    endloop
  endfacet
  facet normal 0.000000e+000 0.000000e+000 -1.989141e-001
    outer loop
      vertex   -3.710000e+001 8.505000e+001 1.400000e+001
      vertex   -4.244100e+001 8.897000e+001 1.400000e+001
      vertex   -4.244100e+001 9.093000e+001 1.400000e+001
    endloop
  endfacet
  facet normal 0.000000e+000 0.000000e+000 -6.723661e-001
    outer loop
      vertex   -3.710000e+001 8.505000e+001 1.400000e+001
      vertex   -4.244100e+001 9.093000e+001 1.400000e+001
      vertex   -3.710000e+001 9.485000e+001 1.400000e+001
    endloop
  endfacet
  facet normal -0.000000e+000 0.000000e+000 -5.916838e-001
    outer loop
      vertex   -3.710000e+001 9.485000e+001 1.400000e+001
      vertex   -4.244100e+001 9.093000e+001 1.400000e+001
      vertex   -4.690000e+001 9.485000e+001 1.400000e+001
    endloop
  endfacet
  facet normal 0.000000e+000 0.000000e+000 -5.199153e-001
    outer loop
      vertex   -4.690000e+001 9.485000e+001 1.400000e+001
      vertex   -4.244100e+001 9.093000e+001 1.400000e+001
      vertex   -4.567500e+001 9.093000e+001 1.400000e+001
    endloop
  endfacet
  facet normal 0.000000e+000 0.000000e+000 -2.982756e-001
    outer loop
      vertex   -4.690000e+001 9.485000e+001 1.400000e+001
      vertex   -4.567500e+001 9.093000e+001 1.400000e+001
      vertex   -4.690000e+001 8.505000e+001 1.400000e+001
    endloop
  endfacet
  facet normal 0.000000e+000 -1.000000e+000 0.000000e+000
    outer loop
      vertex   -4.690000e+001 8.505000e+001 1.500000e+001
      vertex   -4.690000e+001 8.505000e+001 1.400000e+001
      vertex   -3.710000e+001 8.505000e+001 1.500000e+001
    endloop
  endfacet
  facet normal 0.000000e+000 -9.948341e-001 -0.000000e+000
    outer loop
      vertex   -3.710000e+001 8.505000e+001 1.500000e+001
      vertex   -4.690000e+001 8.505000e+001 1.400000e+001
      vertex   -3.710000e+001 8.505000e+001 1.400000e+001
    endloop
  endfacet
  facet normal -1.000000e+000 -0.000000e+000 -0.000000e+000
    outer loop
      vertex   -4.690000e+001 9.485000e+001 1.500000e+001
      vertex   -4.690000e+001 9.485000e+001 1.400000e+001
      vertex   -4.690000e+001 8.505000e+001 1.500000e+001
    endloop
  endfacet
  facet normal -9.948341e-001 0.000000e+000 0.000000e+000
    outer loop
      vertex   -4.690000e+001 8.505000e+001 1.500000e+001
      vertex   -4.690000e+001 9.485000e+001 1.400000e+001
      vertex   -4.690000e+001 8.505000e+001 1.400000e+001
    endloop
  endfacet
  facet normal 0.000000e+000 1.000000e+000 0.000000e+000
    outer loop
      vertex   -3.710000e+001 9.485000e+001 1.500000e+001
      vertex   -3.710000e+001 9.485000e+001 1.400000e+001
      vertex   -4.690000e+001 9.485000e+001 1.500000e+001
    endloop
  endfacet
  facet normal 0.000000e+000 9.948341e-001 0.000000e+000
    outer loop
      vertex   -4.690000e+001 9.485000e+001 1.500000e+001
      vertex   -3.710000e+001 9.485000e+001 1.400000e+001
      vertex   -4.690000e+001 9.485000e+001 1.400000e+001
    endloop
  endfacet
  facet normal 1.000000e+000 -0.000000e+000 0.000000e+000
    outer loop
      vertex   -3.710000e+001 8.505000e+001 1.500000e+001
      vertex   -3.710000e+001 8.505000e+001 1.400000e+001
      vertex   -3.710000e+001 9.485000e+001 1.500000e+001
    endloop
  endfacet
  facet normal 9.948341e-001 0.000000e+000 0.000000e+000
    outer loop
      vertex   -3.710000e+001 9.485000e+001 1.500000e+001
      vertex   -3.710000e+001 8.505000e+001 1.400000e+001
      vertex   -3.710000e+001 9.485000e+001 1.400000e+001
    endloop
  endfacet
endsolid
