solid ascii
  facet normal 0.000000e+000 1.000000e+000 -0.000000e+000
    outer loop
      vertex   -4.887224e+001 1.559630e+002 2.928932e+000
      vertex   -5.887224e+001 1.559630e+002 2.928932e+000
      vertex   -4.887224e+001 1.559630e+002 7.071068e+000
    endloop
  endfacet
  facet normal 0.000000e+000 3.826834e-001 0.000000e+000
    outer loop
      vertex   -4.887224e+001 1.559630e+002 7.071068e+000
      vertex   -5.887224e+001 1.559630e+002 2.928932e+000
      vertex   -5.887224e+001 1.559630e+002 7.071068e+000
    endloop
  endfacet
  facet normal 0.000000e+000 7.071068e-001 0.000000e+000
    outer loop
      vertex   -4.887224e+001 1.559630e+002 7.071068e+000
      vertex   -5.887224e+001 1.559630e+002 7.071068e+000
      vertex   -5.180117e+001 1.559630e+002 1.000000e+001
    endloop
  endfacet
  facet normal 0.000000e+000 3.826834e-001 0.000000e+000
    outer loop
      vertex   -5.180117e+001 1.559630e+002 1.000000e+001
      vertex   -5.887224e+001 1.559630e+002 7.071068e+000
      vertex   -5.594331e+001 1.559630e+002 1.000000e+001
    endloop
  endfacet
  facet normal 0.000000e+000 7.071068e-001 -0.000000e+000
    outer loop
      vertex   -5.180117e+001 1.559630e+002 3.552714e-014
      vertex   -5.594331e+001 1.559630e+002 3.552714e-014
      vertex   -4.887224e+001 1.559630e+002 2.928932e+000
    endloop
  endfacet
  facet normal 0.000000e+000 3.826834e-001 0.000000e+000
    outer loop
      vertex   -4.887224e+001 1.559630e+002 2.928932e+000
      vertex   -5.594331e+001 1.559630e+002 3.552714e-014
      vertex   -5.887224e+001 1.559630e+002 2.928932e+000
    endloop
  endfacet
  facet normal -0.000000e+000 -1.000000e+000 -0.000000e+000
    outer loop
      vertex   -4.887224e+001 2.596298e+001 7.071068e+000
      vertex   -5.887224e+001 2.596298e+001 7.071068e+000
      vertex   -4.887224e+001 2.596298e+001 2.928932e+000
    endloop
  endfacet
  facet normal 0.000000e+000 -3.826834e-001 0.000000e+000
    outer loop
      vertex   -4.887224e+001 2.596298e+001 2.928932e+000
      vertex   -5.887224e+001 2.596298e+001 7.071068e+000
      vertex   -5.887224e+001 2.596298e+001 2.928932e+000
    endloop
  endfacet
  facet normal -0.000000e+000 -7.071068e-001 0.000000e+000
    outer loop
      vertex   -4.887224e+001 2.596298e+001 2.928932e+000
      vertex   -5.887224e+001 2.596298e+001 2.928932e+000
      vertex   -5.180117e+001 2.596298e+001 8.881784e-015
    endloop
  endfacet
  facet normal 0.000000e+000 -3.826834e-001 0.000000e+000
    outer loop
      vertex   -5.180117e+001 2.596298e+001 8.881784e-015
      vertex   -5.887224e+001 2.596298e+001 2.928932e+000
      vertex   -5.594331e+001 2.596298e+001 8.881784e-015
    endloop
  endfacet
  facet normal -0.000000e+000 -7.071068e-001 -0.000000e+000
    outer loop
      vertex   -5.180117e+001 2.596298e+001 1.000000e+001
      vertex   -5.594331e+001 2.596298e+001 1.000000e+001
      vertex   -4.887224e+001 2.596298e+001 7.071068e+000
    endloop
  endfacet
  facet normal 0.000000e+000 -3.826834e-001 0.000000e+000
    outer loop
      vertex   -4.887224e+001 2.596298e+001 7.071068e+000
      vertex   -5.594331e+001 2.596298e+001 1.000000e+001
      vertex   -5.887224e+001 2.596298e+001 7.071068e+000
    endloop
  endfacet
  facet normal 7.071068e-001 0.000000e+000 7.071068e-001
    outer loop
      vertex   -5.180117e+001 1.559630e+002 1.000000e+001
      vertex   -5.180117e+001 1.126296e+002 1.000000e+001
      vertex   -4.887224e+001 1.559630e+002 7.071068e+000
    endloop
  endfacet
  facet normal 6.728405e-002 0.000000e+000 6.728405e-002
    outer loop
      vertex   -4.887224e+001 1.559630e+002 7.071068e+000
      vertex   -5.180117e+001 1.126296e+002 1.000000e+001
      vertex   -4.887224e+001 1.126296e+002 7.071068e+000
    endloop
  endfacet
  facet normal 7.038983e-001 0.000000e+000 7.038983e-001
    outer loop
      vertex   -4.887224e+001 1.126296e+002 7.071068e+000
      vertex   -5.180117e+001 1.126296e+002 1.000000e+001
      vertex   -5.180117e+001 6.929632e+001 1.000000e+001
    endloop
  endfacet
  facet normal 6.728406e-002 0.000000e+000 6.728406e-002
    outer loop
      vertex   -4.887224e+001 1.126296e+002 7.071068e+000
      vertex   -5.180117e+001 6.929632e+001 1.000000e+001
      vertex   -4.887224e+001 6.929632e+001 7.071068e+000
    endloop
  endfacet
  facet normal 7.038983e-001 0.000000e+000 7.038983e-001
    outer loop
      vertex   -4.887224e+001 6.929632e+001 7.071068e+000
      vertex   -5.180117e+001 6.929632e+001 1.000000e+001
      vertex   -5.180117e+001 2.596298e+001 1.000000e+001
    endloop
  endfacet
  facet normal 6.728405e-002 0.000000e+000 6.728405e-002
    outer loop
      vertex   -4.887224e+001 6.929632e+001 7.071068e+000
      vertex   -5.180117e+001 2.596298e+001 1.000000e+001
      vertex   -4.887224e+001 2.596298e+001 7.071068e+000
    endloop
  endfacet
  facet normal -0.000000e+000 0.000000e+000 1.000000e+000
    outer loop
      vertex   -5.594331e+001 1.559630e+002 1.000000e+001
      vertex   -5.594331e+001 1.126296e+002 1.000000e+001
      vertex   -5.180117e+001 1.559630e+002 1.000000e+001
    endloop
  endfacet
  facet normal 0.000000e+000 0.000000e+000 9.515402e-002
    outer loop
      vertex   -5.180117e+001 1.559630e+002 1.000000e+001
      vertex   -5.594331e+001 1.126296e+002 1.000000e+001
      vertex   -5.180117e+001 1.126296e+002 1.000000e+001
    endloop
  endfacet
  facet normal 0.000000e+000 0.000000e+000 9.954625e-001
    outer loop
      vertex   -5.180117e+001 1.126296e+002 1.000000e+001
      vertex   -5.594331e+001 1.126296e+002 1.000000e+001
      vertex   -5.594331e+001 6.929632e+001 1.000000e+001
    endloop
  endfacet
  facet normal 0.000000e+000 0.000000e+000 9.515403e-002
    outer loop
      vertex   -5.180117e+001 1.126296e+002 1.000000e+001
      vertex   -5.594331e+001 6.929632e+001 1.000000e+001
      vertex   -5.180117e+001 6.929632e+001 1.000000e+001
    endloop
  endfacet
  facet normal 0.000000e+000 0.000000e+000 9.954625e-001
    outer loop
      vertex   -5.180117e+001 6.929632e+001 1.000000e+001
      vertex   -5.594331e+001 6.929632e+001 1.000000e+001
      vertex   -5.594331e+001 2.596298e+001 1.000000e+001
    endloop
  endfacet
  facet normal 0.000000e+000 0.000000e+000 9.515402e-002
    outer loop
      vertex   -5.180117e+001 6.929632e+001 1.000000e+001
      vertex   -5.594331e+001 2.596298e+001 1.000000e+001
      vertex   -5.180117e+001 2.596298e+001 1.000000e+001
    endloop
  endfacet
  facet normal -7.071068e-001 0.000000e+000 7.071068e-001
    outer loop
      vertex   -5.887224e+001 1.559630e+002 7.071068e+000
      vertex   -5.887224e+001 1.126296e+002 7.071068e+000
      vertex   -5.594331e+001 1.559630e+002 1.000000e+001
    endloop
  endfacet
  facet normal -6.728405e-002 0.000000e+000 6.728405e-002
    outer loop
      vertex   -5.594331e+001 1.559630e+002 1.000000e+001
      vertex   -5.887224e+001 1.126296e+002 7.071068e+000
      vertex   -5.594331e+001 1.126296e+002 1.000000e+001
    endloop
  endfacet
  facet normal -7.038983e-001 0.000000e+000 7.038983e-001
    outer loop
      vertex   -5.594331e+001 1.126296e+002 1.000000e+001
      vertex   -5.887224e+001 1.126296e+002 7.071068e+000
      vertex   -5.887224e+001 6.929632e+001 7.071068e+000
    endloop
  endfacet
  facet normal -6.728406e-002 0.000000e+000 6.728406e-002
    outer loop
      vertex   -5.594331e+001 1.126296e+002 1.000000e+001
      vertex   -5.887224e+001 6.929632e+001 7.071068e+000
      vertex   -5.594331e+001 6.929632e+001 1.000000e+001
    endloop
  endfacet
  facet normal -7.038983e-001 0.000000e+000 7.038983e-001
    outer loop
      vertex   -5.594331e+001 6.929632e+001 1.000000e+001
      vertex   -5.887224e+001 6.929632e+001 7.071068e+000
      vertex   -5.887224e+001 2.596298e+001 7.071068e+000
    endloop
  endfacet
  facet normal -6.728405e-002 0.000000e+000 6.728405e-002
    outer loop
      vertex   -5.594331e+001 6.929632e+001 1.000000e+001
      vertex   -5.887224e+001 2.596298e+001 7.071068e+000
      vertex   -5.594331e+001 2.596298e+001 1.000000e+001
    endloop
  endfacet
  facet normal -1.000000e+000 0.000000e+000 0.000000e+000
    outer loop
      vertex   -5.887224e+001 1.559630e+002 2.928932e+000
      vertex   -5.887224e+001 1.126296e+002 2.928932e+000
      vertex   -5.887224e+001 1.559630e+002 7.071068e+000
    endloop
  endfacet
  facet normal -9.515402e-002 -0.000000e+000 0.000000e+000
    outer loop
      vertex   -5.887224e+001 1.559630e+002 7.071068e+000
      vertex   -5.887224e+001 1.126296e+002 2.928932e+000
      vertex   -5.887224e+001 1.126296e+002 7.071068e+000
    endloop
  endfacet
  facet normal -9.954625e-001 0.000000e+000 -0.000000e+000
    outer loop
      vertex   -5.887224e+001 1.126296e+002 7.071068e+000
      vertex   -5.887224e+001 1.126296e+002 2.928932e+000
      vertex   -5.887224e+001 6.929632e+001 2.928932e+000
    endloop
  endfacet
  facet normal -9.515403e-002 -0.000000e+000 0.000000e+000
    outer loop
      vertex   -5.887224e+001 1.126296e+002 7.071068e+000
      vertex   -5.887224e+001 6.929632e+001 2.928932e+000
      vertex   -5.887224e+001 6.929632e+001 7.071068e+000
    endloop
  endfacet
  facet normal -9.954625e-001 0.000000e+000 -0.000000e+000
    outer loop
      vertex   -5.887224e+001 6.929632e+001 7.071068e+000
      vertex   -5.887224e+001 6.929632e+001 2.928932e+000
      vertex   -5.887224e+001 2.596298e+001 2.928932e+000
    endloop
  endfacet
  facet normal -9.515402e-002 -0.000000e+000 0.000000e+000
    outer loop
      vertex   -5.887224e+001 6.929632e+001 7.071068e+000
      vertex   -5.887224e+001 2.596298e+001 2.928932e+000
      vertex   -5.887224e+001 2.596298e+001 7.071068e+000
    endloop
  endfacet
  facet normal -7.071068e-001 6.642696e-017 -7.071068e-001
    outer loop
      vertex   -5.594331e+001 1.559630e+002 3.552714e-014
      vertex   -5.594331e+001 1.126296e+002 3.145632e-014
      vertex   -5.887224e+001 1.559630e+002 2.928932e+000
    endloop
  endfacet
  facet normal -6.728405e-002 -0.000000e+000 -6.728405e-002
    outer loop
      vertex   -5.887224e+001 1.559630e+002 2.928932e+000
      vertex   -5.594331e+001 1.126296e+002 3.145632e-014
      vertex   -5.887224e+001 1.126296e+002 2.928932e+000
    endloop
  endfacet
  facet normal -7.038983e-001 0.000000e+000 -7.038983e-001
    outer loop
      vertex   -5.887224e+001 1.126296e+002 2.928932e+000
      vertex   -5.594331e+001 1.126296e+002 3.145632e-014
      vertex   -5.594331e+001 6.929632e+001 2.183439e-014
    endloop
  endfacet
  facet normal -6.728406e-002 -0.000000e+000 -6.728406e-002
    outer loop
      vertex   -5.887224e+001 1.126296e+002 2.928932e+000
      vertex   -5.594331e+001 6.929632e+001 2.183439e-014
      vertex   -5.887224e+001 6.929632e+001 2.928932e+000
    endloop
  endfacet
  facet normal -7.038983e-001 0.000000e+000 -7.038983e-001
    outer loop
      vertex   -5.887224e+001 6.929632e+001 2.928932e+000
      vertex   -5.594331e+001 6.929632e+001 2.183439e-014
      vertex   -5.594331e+001 2.596298e+001 8.881784e-015
    endloop
  endfacet
  facet normal -6.728405e-002 -0.000000e+000 -6.728405e-002
    outer loop
      vertex   -5.887224e+001 6.929632e+001 2.928932e+000
      vertex   -5.594331e+001 2.596298e+001 8.881784e-015
      vertex   -5.887224e+001 2.596298e+001 2.928932e+000
    endloop
  endfacet
  facet normal 0.000000e+000 9.394192e-017 -1.000000e+000
    outer loop
      vertex   -5.180117e+001 1.559630e+002 3.552714e-014
      vertex   -5.180117e+001 1.126296e+002 3.145632e-014
      vertex   -5.594331e+001 1.559630e+002 3.552714e-014
    endloop
  endfacet
  facet normal 1.232595e-032 8.938950e-018 -9.515402e-002
    outer loop
      vertex   -5.594331e+001 1.559630e+002 3.552714e-014
      vertex   -5.180117e+001 1.126296e+002 3.145632e-014
      vertex   -5.594331e+001 1.126296e+002 3.145632e-014
    endloop
  endfacet
  facet normal 0.000000e+000 2.210371e-016 -9.954625e-001
    outer loop
      vertex   -5.594331e+001 1.126296e+002 3.145632e-014
      vertex   -5.180117e+001 1.126296e+002 3.145632e-014
      vertex   -5.180117e+001 6.929632e+001 2.183439e-014
    endloop
  endfacet
  facet normal 0.000000e+000 2.112844e-017 -9.515403e-002
    outer loop
      vertex   -5.594331e+001 1.126296e+002 3.145632e-014
      vertex   -5.180117e+001 6.929632e+001 2.183439e-014
      vertex   -5.594331e+001 6.929632e+001 2.183439e-014
    endloop
  endfacet
  facet normal 0.000000e+000 2.975499e-016 -9.954625e-001
    outer loop
      vertex   -5.594331e+001 6.929632e+001 2.183439e-014
      vertex   -5.180117e+001 6.929632e+001 2.183439e-014
      vertex   -5.180117e+001 2.596298e+001 8.881784e-015
    endloop
  endfacet
  facet normal 4.930381e-032 2.844213e-017 -9.515402e-002
    outer loop
      vertex   -5.594331e+001 6.929632e+001 2.183439e-014
      vertex   -5.180117e+001 2.596298e+001 8.881784e-015
      vertex   -5.594331e+001 2.596298e+001 8.881784e-015
    endloop
  endfacet
  facet normal 7.071068e-001 0.000000e+000 -7.071068e-001
    outer loop
      vertex   -4.887224e+001 1.559630e+002 2.928932e+000
      vertex   -4.887224e+001 1.126296e+002 2.928932e+000
      vertex   -5.180117e+001 1.559630e+002 3.552714e-014
    endloop
  endfacet
  facet normal 6.728405e-002 6.320793e-018 -6.728405e-002
    outer loop
      vertex   -5.180117e+001 1.559630e+002 3.552714e-014
      vertex   -4.887224e+001 1.126296e+002 2.928932e+000
      vertex   -5.180117e+001 1.126296e+002 3.145632e-014
    endloop
  endfacet
  facet normal 7.038983e-001 0.000000e+000 -7.038983e-001
    outer loop
      vertex   -5.180117e+001 1.126296e+002 3.145632e-014
      vertex   -4.887224e+001 1.126296e+002 2.928932e+000
      vertex   -4.887224e+001 6.929632e+001 2.928932e+000
    endloop
  endfacet
  facet normal 6.728406e-002 1.494007e-017 -6.728406e-002
    outer loop
      vertex   -5.180117e+001 1.126296e+002 3.145632e-014
      vertex   -4.887224e+001 6.929632e+001 2.928932e+000
      vertex   -5.180117e+001 6.929632e+001 2.183439e-014
    endloop
  endfacet
  facet normal 7.038983e-001 0.000000e+000 -7.038983e-001
    outer loop
      vertex   -5.180117e+001 6.929632e+001 2.183439e-014
      vertex   -4.887224e+001 6.929632e+001 2.928932e+000
      vertex   -4.887224e+001 2.596298e+001 2.928932e+000
    endloop
  endfacet
  facet normal 6.728405e-002 2.011162e-017 -6.728405e-002
    outer loop
      vertex   -5.180117e+001 6.929632e+001 2.183439e-014
      vertex   -4.887224e+001 2.596298e+001 2.928932e+000
      vertex   -5.180117e+001 2.596298e+001 8.881784e-015
    endloop
  endfacet
  facet normal 1.000000e+000 0.000000e+000 0.000000e+000
    outer loop
      vertex   -4.887224e+001 1.559630e+002 7.071068e+000
      vertex   -4.887224e+001 1.126296e+002 7.071068e+000
      vertex   -4.887224e+001 1.559630e+002 2.928932e+000
    endloop
  endfacet
  facet normal 9.515402e-002 0.000000e+000 0.000000e+000
    outer loop
      vertex   -4.887224e+001 1.559630e+002 2.928932e+000
      vertex   -4.887224e+001 1.126296e+002 7.071068e+000
      vertex   -4.887224e+001 1.126296e+002 2.928932e+000
    endloop
  endfacet
  facet normal 9.954625e-001 0.000000e+000 -0.000000e+000
    outer loop
      vertex   -4.887224e+001 1.126296e+002 2.928932e+000
      vertex   -4.887224e+001 1.126296e+002 7.071068e+000
      vertex   -4.887224e+001 6.929632e+001 7.071068e+000
    endloop
  endfacet
  facet normal 9.515403e-002 0.000000e+000 0.000000e+000
    outer loop
      vertex   -4.887224e+001 1.126296e+002 2.928932e+000
      vertex   -4.887224e+001 6.929632e+001 7.071068e+000
      vertex   -4.887224e+001 6.929632e+001 2.928932e+000
    endloop
  endfacet
  facet normal 9.954625e-001 0.000000e+000 -0.000000e+000
    outer loop
      vertex   -4.887224e+001 6.929632e+001 2.928932e+000
      vertex   -4.887224e+001 6.929632e+001 7.071068e+000
      vertex   -4.887224e+001 2.596298e+001 7.071068e+000
    endloop
  endfacet
  facet normal 9.515402e-002 0.000000e+000 0.000000e+000
    outer loop
      vertex   -4.887224e+001 6.929632e+001 2.928932e+000
      vertex   -4.887224e+001 2.596298e+001 7.071068e+000
      vertex   -4.887224e+001 2.596298e+001 2.928932e+000
    endloop
  endfacet
endsolid
solid ascii
  facet normal 0.000000e+000 1.000000e+000 -0.000000e+000
    outer loop
      vertex   -7.187225e+001 1.559630e+002 2.928932e+000
      vertex   -8.187225e+001 1.559630e+002 2.928932e+000
      vertex   -7.187225e+001 1.559630e+002 7.071068e+000
    endloop
  endfacet
  facet normal 0.000000e+000 3.826834e-001 0.000000e+000
    outer loop
      vertex   -7.187225e+001 1.559630e+002 7.071068e+000
      vertex   -8.187225e+001 1.559630e+002 2.928932e+000
      vertex   -8.187225e+001 1.559630e+002 7.071068e+000
    endloop
  endfacet
  facet normal 0.000000e+000 7.071068e-001 0.000000e+000
    outer loop
      vertex   -7.187225e+001 1.559630e+002 7.071068e+000
      vertex   -8.187225e+001 1.559630e+002 7.071068e+000
      vertex   -7.480118e+001 1.559630e+002 1.000000e+001
    endloop
  endfacet
  facet normal 0.000000e+000 3.826834e-001 0.000000e+000
    outer loop
      vertex   -7.480118e+001 1.559630e+002 1.000000e+001
      vertex   -8.187225e+001 1.559630e+002 7.071068e+000
      vertex   -7.894331e+001 1.559630e+002 1.000000e+001
    endloop
  endfacet
  facet normal 0.000000e+000 7.071068e-001 -0.000000e+000
    outer loop
      vertex   -7.480118e+001 1.559630e+002 3.552714e-014
      vertex   -7.894331e+001 1.559630e+002 3.552714e-014
      vertex   -7.187225e+001 1.559630e+002 2.928932e+000
    endloop
  endfacet
  facet normal 0.000000e+000 3.826834e-001 0.000000e+000
    outer loop
      vertex   -7.187225e+001 1.559630e+002 2.928932e+000
      vertex   -7.894331e+001 1.559630e+002 3.552714e-014
      vertex   -8.187225e+001 1.559630e+002 2.928932e+000
    endloop
  endfacet
  facet normal -0.000000e+000 -1.000000e+000 -0.000000e+000
    outer loop
      vertex   -7.187225e+001 2.596298e+001 7.071068e+000
      vertex   -8.187225e+001 2.596298e+001 7.071068e+000
      vertex   -7.187225e+001 2.596298e+001 2.928932e+000
    endloop
  endfacet
  facet normal 0.000000e+000 -3.826834e-001 0.000000e+000
    outer loop
      vertex   -7.187225e+001 2.596298e+001 2.928932e+000
      vertex   -8.187225e+001 2.596298e+001 7.071068e+000
      vertex   -8.187225e+001 2.596298e+001 2.928932e+000
    endloop
  endfacet
  facet normal -0.000000e+000 -7.071068e-001 0.000000e+000
    outer loop
      vertex   -7.187225e+001 2.596298e+001 2.928932e+000
      vertex   -8.187225e+001 2.596298e+001 2.928932e+000
      vertex   -7.480118e+001 2.596298e+001 8.881784e-015
    endloop
  endfacet
  facet normal 0.000000e+000 -3.826834e-001 0.000000e+000
    outer loop
      vertex   -7.480118e+001 2.596298e+001 8.881784e-015
      vertex   -8.187225e+001 2.596298e+001 2.928932e+000
      vertex   -7.894331e+001 2.596298e+001 8.881784e-015
    endloop
  endfacet
  facet normal -0.000000e+000 -7.071068e-001 -0.000000e+000
    outer loop
      vertex   -7.480118e+001 2.596298e+001 1.000000e+001
      vertex   -7.894331e+001 2.596298e+001 1.000000e+001
      vertex   -7.187225e+001 2.596298e+001 7.071068e+000
    endloop
  endfacet
  facet normal 0.000000e+000 -3.826834e-001 0.000000e+000
    outer loop
      vertex   -7.187225e+001 2.596298e+001 7.071068e+000
      vertex   -7.894331e+001 2.596298e+001 1.000000e+001
      vertex   -8.187225e+001 2.596298e+001 7.071068e+000
    endloop
  endfacet
  facet normal 7.071068e-001 0.000000e+000 7.071068e-001
    outer loop
      vertex   -7.480118e+001 1.559630e+002 1.000000e+001
      vertex   -7.480118e+001 1.126296e+002 1.000000e+001
      vertex   -7.187225e+001 1.559630e+002 7.071068e+000
    endloop
  endfacet
  facet normal 6.728405e-002 0.000000e+000 6.728405e-002
    outer loop
      vertex   -7.187225e+001 1.559630e+002 7.071068e+000
      vertex   -7.480118e+001 1.126296e+002 1.000000e+001
      vertex   -7.187225e+001 1.126296e+002 7.071068e+000
    endloop
  endfacet
  facet normal 7.038983e-001 0.000000e+000 7.038983e-001
    outer loop
      vertex   -7.187225e+001 1.126296e+002 7.071068e+000
      vertex   -7.480118e+001 1.126296e+002 1.000000e+001
      vertex   -7.480118e+001 6.929632e+001 1.000000e+001
    endloop
  endfacet
  facet normal 6.728406e-002 0.000000e+000 6.728406e-002
    outer loop
      vertex   -7.187225e+001 1.126296e+002 7.071068e+000
      vertex   -7.480118e+001 6.929632e+001 1.000000e+001
      vertex   -7.187225e+001 6.929632e+001 7.071068e+000
    endloop
  endfacet
  facet normal 7.038983e-001 0.000000e+000 7.038983e-001
    outer loop
      vertex   -7.187225e+001 6.929632e+001 7.071068e+000
      vertex   -7.480118e+001 6.929632e+001 1.000000e+001
      vertex   -7.480118e+001 2.596298e+001 1.000000e+001
    endloop
  endfacet
  facet normal 6.728405e-002 0.000000e+000 6.728405e-002
    outer loop
      vertex   -7.187225e+001 6.929632e+001 7.071068e+000
      vertex   -7.480118e+001 2.596298e+001 1.000000e+001
      vertex   -7.187225e+001 2.596298e+001 7.071068e+000
    endloop
  endfacet
  facet normal -0.000000e+000 0.000000e+000 1.000000e+000
    outer loop
      vertex   -7.894331e+001 1.559630e+002 1.000000e+001
      vertex   -7.894331e+001 1.126296e+002 1.000000e+001
      vertex   -7.480118e+001 1.559630e+002 1.000000e+001
    endloop
  endfacet
  facet normal 0.000000e+000 0.000000e+000 9.515402e-002
    outer loop
      vertex   -7.480118e+001 1.559630e+002 1.000000e+001
      vertex   -7.894331e+001 1.126296e+002 1.000000e+001
      vertex   -7.480118e+001 1.126296e+002 1.000000e+001
    endloop
  endfacet
  facet normal 0.000000e+000 0.000000e+000 9.954625e-001
    outer loop
      vertex   -7.480118e+001 1.126296e+002 1.000000e+001
      vertex   -7.894331e+001 1.126296e+002 1.000000e+001
      vertex   -7.894331e+001 6.929632e+001 1.000000e+001
    endloop
  endfacet
  facet normal 0.000000e+000 0.000000e+000 9.515403e-002
    outer loop
      vertex   -7.480118e+001 1.126296e+002 1.000000e+001
      vertex   -7.894331e+001 6.929632e+001 1.000000e+001
      vertex   -7.480118e+001 6.929632e+001 1.000000e+001
    endloop
  endfacet
  facet normal 0.000000e+000 0.000000e+000 9.954625e-001
    outer loop
      vertex   -7.480118e+001 6.929632e+001 1.000000e+001
      vertex   -7.894331e+001 6.929632e+001 1.000000e+001
      vertex   -7.894331e+001 2.596298e+001 1.000000e+001
    endloop
  endfacet
  facet normal 0.000000e+000 0.000000e+000 9.515402e-002
    outer loop
      vertex   -7.480118e+001 6.929632e+001 1.000000e+001
      vertex   -7.894331e+001 2.596298e+001 1.000000e+001
      vertex   -7.480118e+001 2.596298e+001 1.000000e+001
    endloop
  endfacet
  facet normal -7.071068e-001 0.000000e+000 7.071068e-001
    outer loop
      vertex   -8.187225e+001 1.559630e+002 7.071068e+000
      vertex   -8.187225e+001 1.126296e+002 7.071068e+000
      vertex   -7.894331e+001 1.559630e+002 1.000000e+001
    endloop
  endfacet
  facet normal -6.728405e-002 0.000000e+000 6.728405e-002
    outer loop
      vertex   -7.894331e+001 1.559630e+002 1.000000e+001
      vertex   -8.187225e+001 1.126296e+002 7.071068e+000
      vertex   -7.894331e+001 1.126296e+002 1.000000e+001
    endloop
  endfacet
  facet normal -7.038983e-001 0.000000e+000 7.038983e-001
    outer loop
      vertex   -7.894331e+001 1.126296e+002 1.000000e+001
      vertex   -8.187225e+001 1.126296e+002 7.071068e+000
      vertex   -8.187225e+001 6.929632e+001 7.071068e+000
    endloop
  endfacet
  facet normal -6.728406e-002 0.000000e+000 6.728406e-002
    outer loop
      vertex   -7.894331e+001 1.126296e+002 1.000000e+001
      vertex   -8.187225e+001 6.929632e+001 7.071068e+000
      vertex   -7.894331e+001 6.929632e+001 1.000000e+001
    endloop
  endfacet
  facet normal -7.038983e-001 0.000000e+000 7.038983e-001
    outer loop
      vertex   -7.894331e+001 6.929632e+001 1.000000e+001
      vertex   -8.187225e+001 6.929632e+001 7.071068e+000
      vertex   -8.187225e+001 2.596298e+001 7.071068e+000
    endloop
  endfacet
  facet normal -6.728405e-002 0.000000e+000 6.728405e-002
    outer loop
      vertex   -7.894331e+001 6.929632e+001 1.000000e+001
      vertex   -8.187225e+001 2.596298e+001 7.071068e+000
      vertex   -7.894331e+001 2.596298e+001 1.000000e+001
    endloop
  endfacet
  facet normal -1.000000e+000 0.000000e+000 0.000000e+000
    outer loop
      vertex   -8.187225e+001 1.559630e+002 2.928932e+000
      vertex   -8.187225e+001 1.126296e+002 2.928932e+000
      vertex   -8.187225e+001 1.559630e+002 7.071068e+000
    endloop
  endfacet
  facet normal -9.515402e-002 -0.000000e+000 0.000000e+000
    outer loop
      vertex   -8.187225e+001 1.559630e+002 7.071068e+000
      vertex   -8.187225e+001 1.126296e+002 2.928932e+000
      vertex   -8.187225e+001 1.126296e+002 7.071068e+000
    endloop
  endfacet
  facet normal -9.954625e-001 0.000000e+000 -0.000000e+000
    outer loop
      vertex   -8.187225e+001 1.126296e+002 7.071068e+000
      vertex   -8.187225e+001 1.126296e+002 2.928932e+000
      vertex   -8.187225e+001 6.929632e+001 2.928932e+000
    endloop
  endfacet
  facet normal -9.515403e-002 -0.000000e+000 0.000000e+000
    outer loop
      vertex   -8.187225e+001 1.126296e+002 7.071068e+000
      vertex   -8.187225e+001 6.929632e+001 2.928932e+000
      vertex   -8.187225e+001 6.929632e+001 7.071068e+000
    endloop
  endfacet
  facet normal -9.954625e-001 0.000000e+000 -0.000000e+000
    outer loop
      vertex   -8.187225e+001 6.929632e+001 7.071068e+000
      vertex   -8.187225e+001 6.929632e+001 2.928932e+000
      vertex   -8.187225e+001 2.596298e+001 2.928932e+000
    endloop
  endfacet
  facet normal -9.515402e-002 -0.000000e+000 0.000000e+000
    outer loop
      vertex   -8.187225e+001 6.929632e+001 7.071068e+000
      vertex   -8.187225e+001 2.596298e+001 2.928932e+000
      vertex   -8.187225e+001 2.596298e+001 7.071068e+000
    endloop
  endfacet
  facet normal -7.071068e-001 6.642696e-017 -7.071068e-001
    outer loop
      vertex   -7.894331e+001 1.559630e+002 3.552714e-014
      vertex   -7.894331e+001 1.126296e+002 3.145632e-014
      vertex   -8.187225e+001 1.559630e+002 2.928932e+000
    endloop
  endfacet
  facet normal -6.728405e-002 -0.000000e+000 -6.728405e-002
    outer loop
      vertex   -8.187225e+001 1.559630e+002 2.928932e+000
      vertex   -7.894331e+001 1.126296e+002 3.145632e-014
      vertex   -8.187225e+001 1.126296e+002 2.928932e+000
    endloop
  endfacet
  facet normal -7.038983e-001 0.000000e+000 -7.038983e-001
    outer loop
      vertex   -8.187225e+001 1.126296e+002 2.928932e+000
      vertex   -7.894331e+001 1.126296e+002 3.145632e-014
      vertex   -7.894331e+001 6.929632e+001 2.183439e-014
    endloop
  endfacet
  facet normal -6.728406e-002 -0.000000e+000 -6.728406e-002
    outer loop
      vertex   -8.187225e+001 1.126296e+002 2.928932e+000
      vertex   -7.894331e+001 6.929632e+001 2.183439e-014
      vertex   -8.187225e+001 6.929632e+001 2.928932e+000
    endloop
  endfacet
  facet normal -7.038983e-001 0.000000e+000 -7.038983e-001
    outer loop
      vertex   -8.187225e+001 6.929632e+001 2.928932e+000
      vertex   -7.894331e+001 6.929632e+001 2.183439e-014
      vertex   -7.894331e+001 2.596298e+001 8.881784e-015
    endloop
  endfacet
  facet normal -6.728405e-002 -0.000000e+000 -6.728405e-002
    outer loop
      vertex   -8.187225e+001 6.929632e+001 2.928932e+000
      vertex   -7.894331e+001 2.596298e+001 8.881784e-015
      vertex   -8.187225e+001 2.596298e+001 2.928932e+000
    endloop
  endfacet
  facet normal 0.000000e+000 9.394192e-017 -1.000000e+000
    outer loop
      vertex   -7.480118e+001 1.559630e+002 3.552714e-014
      vertex   -7.480118e+001 1.126296e+002 3.145632e-014
      vertex   -7.894331e+001 1.559630e+002 3.552714e-014
    endloop
  endfacet
  facet normal 1.232595e-032 8.938950e-018 -9.515402e-002
    outer loop
      vertex   -7.894331e+001 1.559630e+002 3.552714e-014
      vertex   -7.480118e+001 1.126296e+002 3.145632e-014
      vertex   -7.894331e+001 1.126296e+002 3.145632e-014
    endloop
  endfacet
  facet normal 0.000000e+000 2.210371e-016 -9.954625e-001
    outer loop
      vertex   -7.894331e+001 1.126296e+002 3.145632e-014
      vertex   -7.480118e+001 1.126296e+002 3.145632e-014
      vertex   -7.480118e+001 6.929632e+001 2.183439e-014
    endloop
  endfacet
  facet normal 0.000000e+000 2.112844e-017 -9.515403e-002
    outer loop
      vertex   -7.894331e+001 1.126296e+002 3.145632e-014
      vertex   -7.480118e+001 6.929632e+001 2.183439e-014
      vertex   -7.894331e+001 6.929632e+001 2.183439e-014
    endloop
  endfacet
  facet normal 0.000000e+000 2.975499e-016 -9.954625e-001
    outer loop
      vertex   -7.894331e+001 6.929632e+001 2.183439e-014
      vertex   -7.480118e+001 6.929632e+001 2.183439e-014
      vertex   -7.480118e+001 2.596298e+001 8.881784e-015
    endloop
  endfacet
  facet normal 4.930381e-032 2.844213e-017 -9.515402e-002
    outer loop
      vertex   -7.894331e+001 6.929632e+001 2.183439e-014
      vertex   -7.480118e+001 2.596298e+001 8.881784e-015
      vertex   -7.894331e+001 2.596298e+001 8.881784e-015
    endloop
  endfacet
  facet normal 7.071068e-001 0.000000e+000 -7.071068e-001
    outer loop
      vertex   -7.187225e+001 1.559630e+002 2.928932e+000
      vertex   -7.187225e+001 1.126296e+002 2.928932e+000
      vertex   -7.480118e+001 1.559630e+002 3.552714e-014
    endloop
  endfacet
  facet normal 6.728405e-002 6.320793e-018 -6.728405e-002
    outer loop
      vertex   -7.480118e+001 1.559630e+002 3.552714e-014
      vertex   -7.187225e+001 1.126296e+002 2.928932e+000
      vertex   -7.480118e+001 1.126296e+002 3.145632e-014
    endloop
  endfacet
  facet normal 7.038983e-001 0.000000e+000 -7.038983e-001
    outer loop
      vertex   -7.480118e+001 1.126296e+002 3.145632e-014
      vertex   -7.187225e+001 1.126296e+002 2.928932e+000
      vertex   -7.187225e+001 6.929632e+001 2.928932e+000
    endloop
  endfacet
  facet normal 6.728406e-002 1.494007e-017 -6.728406e-002
    outer loop
      vertex   -7.480118e+001 1.126296e+002 3.145632e-014
      vertex   -7.187225e+001 6.929632e+001 2.928932e+000
      vertex   -7.480118e+001 6.929632e+001 2.183439e-014
    endloop
  endfacet
  facet normal 7.038983e-001 0.000000e+000 -7.038983e-001
    outer loop
      vertex   -7.480118e+001 6.929632e+001 2.183439e-014
      vertex   -7.187225e+001 6.929632e+001 2.928932e+000
      vertex   -7.187225e+001 2.596298e+001 2.928932e+000
    endloop
  endfacet
  facet normal 6.728405e-002 2.011162e-017 -6.728405e-002
    outer loop
      vertex   -7.480118e+001 6.929632e+001 2.183439e-014
      vertex   -7.187225e+001 2.596298e+001 2.928932e+000
      vertex   -7.480118e+001 2.596298e+001 8.881784e-015
    endloop
  endfacet
  facet normal 1.000000e+000 0.000000e+000 0.000000e+000
    outer loop
      vertex   -7.187225e+001 1.559630e+002 7.071068e+000
      vertex   -7.187225e+001 1.126296e+002 7.071068e+000
      vertex   -7.187225e+001 1.559630e+002 2.928932e+000
    endloop
  endfacet
  facet normal 9.515402e-002 0.000000e+000 0.000000e+000
    outer loop
      vertex   -7.187225e+001 1.559630e+002 2.928932e+000
      vertex   -7.187225e+001 1.126296e+002 7.071068e+000
      vertex   -7.187225e+001 1.126296e+002 2.928932e+000
    endloop
  endfacet
  facet normal 9.954625e-001 0.000000e+000 -0.000000e+000
    outer loop
      vertex   -7.187225e+001 1.126296e+002 2.928932e+000
      vertex   -7.187225e+001 1.126296e+002 7.071068e+000
      vertex   -7.187225e+001 6.929632e+001 7.071068e+000
    endloop
  endfacet
  facet normal 9.515403e-002 0.000000e+000 0.000000e+000
    outer loop
      vertex   -7.187225e+001 1.126296e+002 2.928932e+000
      vertex   -7.187225e+001 6.929632e+001 7.071068e+000
      vertex   -7.187225e+001 6.929632e+001 2.928932e+000
    endloop
  endfacet
  facet normal 9.954625e-001 0.000000e+000 -0.000000e+000
    outer loop
      vertex   -7.187225e+001 6.929632e+001 2.928932e+000
      vertex   -7.187225e+001 6.929632e+001 7.071068e+000
      vertex   -7.187225e+001 2.596298e+001 7.071068e+000
    endloop
  endfacet
  facet normal 9.515402e-002 0.000000e+000 0.000000e+000
    outer loop
      vertex   -7.187225e+001 6.929632e+001 2.928932e+000
      vertex   -7.187225e+001 2.596298e+001 7.071068e+000
      vertex   -7.187225e+001 2.596298e+001 2.928932e+000
    endloop
  endfacet
endsolid
solid ascii
  facet normal 0.000000e+000 1.000000e+000 -0.000000e+000
    outer loop
      vertex   -9.787225e+001 1.559630e+002 2.928932e+000
      vertex   -1.078722e+002 1.559630e+002 2.928932e+000
      vertex   -9.787225e+001 1.559630e+002 7.071068e+000
    endloop
  endfacet
  facet normal 0.000000e+000 3.826834e-001 0.000000e+000
    outer loop
      vertex   -9.787225e+001 1.559630e+002 7.071068e+000
      vertex   -1.078722e+002 1.559630e+002 2.928932e+000
      vertex   -1.078722e+002 1.559630e+002 7.071068e+000
    endloop
  endfacet
  facet normal 0.000000e+000 7.071068e-001 0.000000e+000
    outer loop
      vertex   -9.787225e+001 1.559630e+002 7.071068e+000
      vertex   -1.078722e+002 1.559630e+002 7.071068e+000
      vertex   -1.008012e+002 1.559630e+002 1.000000e+001
    endloop
  endfacet
  facet normal 0.000000e+000 3.826834e-001 0.000000e+000
    outer loop
      vertex   -1.008012e+002 1.559630e+002 1.000000e+001
      vertex   -1.078722e+002 1.559630e+002 7.071068e+000
      vertex   -1.049433e+002 1.559630e+002 1.000000e+001
    endloop
  endfacet
  facet normal 0.000000e+000 7.071068e-001 -0.000000e+000
    outer loop
      vertex   -1.008012e+002 1.559630e+002 3.552714e-014
      vertex   -1.049433e+002 1.559630e+002 3.552714e-014
      vertex   -9.787225e+001 1.559630e+002 2.928932e+000
    endloop
  endfacet
  facet normal 0.000000e+000 3.826834e-001 0.000000e+000
    outer loop
      vertex   -9.787225e+001 1.559630e+002 2.928932e+000
      vertex   -1.049433e+002 1.559630e+002 3.552714e-014
      vertex   -1.078722e+002 1.559630e+002 2.928932e+000
    endloop
  endfacet
  facet normal -0.000000e+000 -1.000000e+000 -0.000000e+000
    outer loop
      vertex   -9.787225e+001 2.596298e+001 7.071068e+000
      vertex   -1.078722e+002 2.596298e+001 7.071068e+000
      vertex   -9.787225e+001 2.596298e+001 2.928932e+000
    endloop
  endfacet
  facet normal 0.000000e+000 -3.826834e-001 0.000000e+000
    outer loop
      vertex   -9.787225e+001 2.596298e+001 2.928932e+000
      vertex   -1.078722e+002 2.596298e+001 7.071068e+000
      vertex   -1.078722e+002 2.596298e+001 2.928932e+000
    endloop
  endfacet
  facet normal -0.000000e+000 -7.071068e-001 0.000000e+000
    outer loop
      vertex   -9.787225e+001 2.596298e+001 2.928932e+000
      vertex   -1.078722e+002 2.596298e+001 2.928932e+000
      vertex   -1.008012e+002 2.596298e+001 8.881784e-015
    endloop
  endfacet
  facet normal 0.000000e+000 -3.826834e-001 0.000000e+000
    outer loop
      vertex   -1.008012e+002 2.596298e+001 8.881784e-015
      vertex   -1.078722e+002 2.596298e+001 2.928932e+000
      vertex   -1.049433e+002 2.596298e+001 8.881784e-015
    endloop
  endfacet
  facet normal -0.000000e+000 -7.071068e-001 -0.000000e+000
    outer loop
      vertex   -1.008012e+002 2.596298e+001 1.000000e+001
      vertex   -1.049433e+002 2.596298e+001 1.000000e+001
      vertex   -9.787225e+001 2.596298e+001 7.071068e+000
    endloop
  endfacet
  facet normal 0.000000e+000 -3.826834e-001 0.000000e+000
    outer loop
      vertex   -9.787225e+001 2.596298e+001 7.071068e+000
      vertex   -1.049433e+002 2.596298e+001 1.000000e+001
      vertex   -1.078722e+002 2.596298e+001 7.071068e+000
    endloop
  endfacet
  facet normal 7.071068e-001 0.000000e+000 7.071068e-001
    outer loop
      vertex   -1.008012e+002 1.559630e+002 1.000000e+001
      vertex   -1.008012e+002 1.126296e+002 1.000000e+001
      vertex   -9.787225e+001 1.559630e+002 7.071068e+000
    endloop
  endfacet
  facet normal 6.728405e-002 0.000000e+000 6.728405e-002
    outer loop
      vertex   -9.787225e+001 1.559630e+002 7.071068e+000
      vertex   -1.008012e+002 1.126296e+002 1.000000e+001
      vertex   -9.787225e+001 1.126296e+002 7.071068e+000
    endloop
  endfacet
  facet normal 7.038983e-001 0.000000e+000 7.038983e-001
    outer loop
      vertex   -9.787225e+001 1.126296e+002 7.071068e+000
      vertex   -1.008012e+002 1.126296e+002 1.000000e+001
      vertex   -1.008012e+002 6.929632e+001 1.000000e+001
    endloop
  endfacet
  facet normal 6.728406e-002 0.000000e+000 6.728406e-002
    outer loop
      vertex   -9.787225e+001 1.126296e+002 7.071068e+000
      vertex   -1.008012e+002 6.929632e+001 1.000000e+001
      vertex   -9.787225e+001 6.929632e+001 7.071068e+000
    endloop
  endfacet
  facet normal 7.038983e-001 0.000000e+000 7.038983e-001
    outer loop
      vertex   -9.787225e+001 6.929632e+001 7.071068e+000
      vertex   -1.008012e+002 6.929632e+001 1.000000e+001
      vertex   -1.008012e+002 2.596298e+001 1.000000e+001
    endloop
  endfacet
  facet normal 6.728405e-002 0.000000e+000 6.728405e-002
    outer loop
      vertex   -9.787225e+001 6.929632e+001 7.071068e+000
      vertex   -1.008012e+002 2.596298e+001 1.000000e+001
      vertex   -9.787225e+001 2.596298e+001 7.071068e+000
    endloop
  endfacet
  facet normal -0.000000e+000 0.000000e+000 1.000000e+000
    outer loop
      vertex   -1.049433e+002 1.559630e+002 1.000000e+001
      vertex   -1.049433e+002 1.126296e+002 1.000000e+001
      vertex   -1.008012e+002 1.559630e+002 1.000000e+001
    endloop
  endfacet
  facet normal 0.000000e+000 0.000000e+000 9.515402e-002
    outer loop
      vertex   -1.008012e+002 1.559630e+002 1.000000e+001
      vertex   -1.049433e+002 1.126296e+002 1.000000e+001
      vertex   -1.008012e+002 1.126296e+002 1.000000e+001
    endloop
  endfacet
  facet normal 0.000000e+000 0.000000e+000 9.954625e-001
    outer loop
      vertex   -1.008012e+002 1.126296e+002 1.000000e+001
      vertex   -1.049433e+002 1.126296e+002 1.000000e+001
      vertex   -1.049433e+002 6.929632e+001 1.000000e+001
    endloop
  endfacet
  facet normal 0.000000e+000 0.000000e+000 9.515403e-002
    outer loop
      vertex   -1.008012e+002 1.126296e+002 1.000000e+001
      vertex   -1.049433e+002 6.929632e+001 1.000000e+001
      vertex   -1.008012e+002 6.929632e+001 1.000000e+001
    endloop
  endfacet
  facet normal 0.000000e+000 0.000000e+000 9.954625e-001
    outer loop
      vertex   -1.008012e+002 6.929632e+001 1.000000e+001
      vertex   -1.049433e+002 6.929632e+001 1.000000e+001
      vertex   -1.049433e+002 2.596298e+001 1.000000e+001
    endloop
  endfacet
  facet normal 0.000000e+000 0.000000e+000 9.515402e-002
    outer loop
      vertex   -1.008012e+002 6.929632e+001 1.000000e+001
      vertex   -1.049433e+002 2.596298e+001 1.000000e+001
      vertex   -1.008012e+002 2.596298e+001 1.000000e+001
    endloop
  endfacet
  facet normal -7.071068e-001 0.000000e+000 7.071068e-001
    outer loop
      vertex   -1.078722e+002 1.559630e+002 7.071068e+000
      vertex   -1.078722e+002 1.126296e+002 7.071068e+000
      vertex   -1.049433e+002 1.559630e+002 1.000000e+001
    endloop
  endfacet
  facet normal -6.728405e-002 0.000000e+000 6.728405e-002
    outer loop
      vertex   -1.049433e+002 1.559630e+002 1.000000e+001
      vertex   -1.078722e+002 1.126296e+002 7.071068e+000
      vertex   -1.049433e+002 1.126296e+002 1.000000e+001
    endloop
  endfacet
  facet normal -7.038983e-001 0.000000e+000 7.038983e-001
    outer loop
      vertex   -1.049433e+002 1.126296e+002 1.000000e+001
      vertex   -1.078722e+002 1.126296e+002 7.071068e+000
      vertex   -1.078722e+002 6.929632e+001 7.071068e+000
    endloop
  endfacet
  facet normal -6.728406e-002 0.000000e+000 6.728406e-002
    outer loop
      vertex   -1.049433e+002 1.126296e+002 1.000000e+001
      vertex   -1.078722e+002 6.929632e+001 7.071068e+000
      vertex   -1.049433e+002 6.929632e+001 1.000000e+001
    endloop
  endfacet
  facet normal -7.038983e-001 0.000000e+000 7.038983e-001
    outer loop
      vertex   -1.049433e+002 6.929632e+001 1.000000e+001
      vertex   -1.078722e+002 6.929632e+001 7.071068e+000
      vertex   -1.078722e+002 2.596298e+001 7.071068e+000
    endloop
  endfacet
  facet normal -6.728405e-002 0.000000e+000 6.728405e-002
    outer loop
      vertex   -1.049433e+002 6.929632e+001 1.000000e+001
      vertex   -1.078722e+002 2.596298e+001 7.071068e+000
      vertex   -1.049433e+002 2.596298e+001 1.000000e+001
    endloop
  endfacet
  facet normal -1.000000e+000 0.000000e+000 0.000000e+000
    outer loop
      vertex   -1.078722e+002 1.559630e+002 2.928932e+000
      vertex   -1.078722e+002 1.126296e+002 2.928932e+000
      vertex   -1.078722e+002 1.559630e+002 7.071068e+000
    endloop
  endfacet
  facet normal -9.515402e-002 -0.000000e+000 0.000000e+000
    outer loop
      vertex   -1.078722e+002 1.559630e+002 7.071068e+000
      vertex   -1.078722e+002 1.126296e+002 2.928932e+000
      vertex   -1.078722e+002 1.126296e+002 7.071068e+000
    endloop
  endfacet
  facet normal -9.954625e-001 0.000000e+000 -0.000000e+000
    outer loop
      vertex   -1.078722e+002 1.126296e+002 7.071068e+000
      vertex   -1.078722e+002 1.126296e+002 2.928932e+000
      vertex   -1.078722e+002 6.929632e+001 2.928932e+000
    endloop
  endfacet
  facet normal -9.515403e-002 -0.000000e+000 0.000000e+000
    outer loop
      vertex   -1.078722e+002 1.126296e+002 7.071068e+000
      vertex   -1.078722e+002 6.929632e+001 2.928932e+000
      vertex   -1.078722e+002 6.929632e+001 7.071068e+000
    endloop
  endfacet
  facet normal -9.954625e-001 0.000000e+000 -0.000000e+000
    outer loop
      vertex   -1.078722e+002 6.929632e+001 7.071068e+000
      vertex   -1.078722e+002 6.929632e+001 2.928932e+000
      vertex   -1.078722e+002 2.596298e+001 2.928932e+000
    endloop
  endfacet
  facet normal -9.515402e-002 -0.000000e+000 0.000000e+000
    outer loop
      vertex   -1.078722e+002 6.929632e+001 7.071068e+000
      vertex   -1.078722e+002 2.596298e+001 2.928932e+000
      vertex   -1.078722e+002 2.596298e+001 7.071068e+000
    endloop
  endfacet
  facet normal -7.071068e-001 6.642696e-017 -7.071068e-001
    outer loop
      vertex   -1.049433e+002 1.559630e+002 3.552714e-014
      vertex   -1.049433e+002 1.126296e+002 3.145632e-014
      vertex   -1.078722e+002 1.559630e+002 2.928932e+000
    endloop
  endfacet
  facet normal -6.728405e-002 -0.000000e+000 -6.728405e-002
    outer loop
      vertex   -1.078722e+002 1.559630e+002 2.928932e+000
      vertex   -1.049433e+002 1.126296e+002 3.145632e-014
      vertex   -1.078722e+002 1.126296e+002 2.928932e+000
    endloop
  endfacet
  facet normal -7.038983e-001 0.000000e+000 -7.038983e-001
    outer loop
      vertex   -1.078722e+002 1.126296e+002 2.928932e+000
      vertex   -1.049433e+002 1.126296e+002 3.145632e-014
      vertex   -1.049433e+002 6.929632e+001 2.183439e-014
    endloop
  endfacet
  facet normal -6.728406e-002 -0.000000e+000 -6.728406e-002
    outer loop
      vertex   -1.078722e+002 1.126296e+002 2.928932e+000
      vertex   -1.049433e+002 6.929632e+001 2.183439e-014
      vertex   -1.078722e+002 6.929632e+001 2.928932e+000
    endloop
  endfacet
  facet normal -7.038983e-001 0.000000e+000 -7.038983e-001
    outer loop
      vertex   -1.078722e+002 6.929632e+001 2.928932e+000
      vertex   -1.049433e+002 6.929632e+001 2.183439e-014
      vertex   -1.049433e+002 2.596298e+001 8.881784e-015
    endloop
  endfacet
  facet normal -6.728405e-002 -0.000000e+000 -6.728405e-002
    outer loop
      vertex   -1.078722e+002 6.929632e+001 2.928932e+000
      vertex   -1.049433e+002 2.596298e+001 8.881784e-015
      vertex   -1.078722e+002 2.596298e+001 2.928932e+000
    endloop
  endfacet
  facet normal 0.000000e+000 9.394192e-017 -1.000000e+000
    outer loop
      vertex   -1.008012e+002 1.559630e+002 3.552714e-014
      vertex   -1.008012e+002 1.126296e+002 3.145632e-014
      vertex   -1.049433e+002 1.559630e+002 3.552714e-014
    endloop
  endfacet
  facet normal 1.232595e-032 8.938950e-018 -9.515402e-002
    outer loop
      vertex   -1.049433e+002 1.559630e+002 3.552714e-014
      vertex   -1.008012e+002 1.126296e+002 3.145632e-014
      vertex   -1.049433e+002 1.126296e+002 3.145632e-014
    endloop
  endfacet
  facet normal 0.000000e+000 2.210371e-016 -9.954625e-001
    outer loop
      vertex   -1.049433e+002 1.126296e+002 3.145632e-014
      vertex   -1.008012e+002 1.126296e+002 3.145632e-014
      vertex   -1.008012e+002 6.929632e+001 2.183439e-014
    endloop
  endfacet
  facet normal 0.000000e+000 2.112844e-017 -9.515403e-002
    outer loop
      vertex   -1.049433e+002 1.126296e+002 3.145632e-014
      vertex   -1.008012e+002 6.929632e+001 2.183439e-014
      vertex   -1.049433e+002 6.929632e+001 2.183439e-014
    endloop
  endfacet
  facet normal 0.000000e+000 2.975499e-016 -9.954625e-001
    outer loop
      vertex   -1.049433e+002 6.929632e+001 2.183439e-014
      vertex   -1.008012e+002 6.929632e+001 2.183439e-014
      vertex   -1.008012e+002 2.596298e+001 8.881784e-015
    endloop
  endfacet
  facet normal 4.930381e-032 2.844213e-017 -9.515402e-002
    outer loop
      vertex   -1.049433e+002 6.929632e+001 2.183439e-014
      vertex   -1.008012e+002 2.596298e+001 8.881784e-015
      vertex   -1.049433e+002 2.596298e+001 8.881784e-015
    endloop
  endfacet
  facet normal 7.071068e-001 0.000000e+000 -7.071068e-001
    outer loop
      vertex   -9.787225e+001 1.559630e+002 2.928932e+000
      vertex   -9.787225e+001 1.126296e+002 2.928932e+000
      vertex   -1.008012e+002 1.559630e+002 3.552714e-014
    endloop
  endfacet
  facet normal 6.728405e-002 6.320793e-018 -6.728405e-002
    outer loop
      vertex   -1.008012e+002 1.559630e+002 3.552714e-014
      vertex   -9.787225e+001 1.126296e+002 2.928932e+000
      vertex   -1.008012e+002 1.126296e+002 3.145632e-014
    endloop
  endfacet
  facet normal 7.038983e-001 0.000000e+000 -7.038983e-001
    outer loop
      vertex   -1.008012e+002 1.126296e+002 3.145632e-014
      vertex   -9.787225e+001 1.126296e+002 2.928932e+000
      vertex   -9.787225e+001 6.929632e+001 2.928932e+000
    endloop
  endfacet
  facet normal 6.728406e-002 1.494007e-017 -6.728406e-002
    outer loop
      vertex   -1.008012e+002 1.126296e+002 3.145632e-014
      vertex   -9.787225e+001 6.929632e+001 2.928932e+000
      vertex   -1.008012e+002 6.929632e+001 2.183439e-014
    endloop
  endfacet
  facet normal 7.038983e-001 0.000000e+000 -7.038983e-001
    outer loop
      vertex   -1.008012e+002 6.929632e+001 2.183439e-014
      vertex   -9.787225e+001 6.929632e+001 2.928932e+000
      vertex   -9.787225e+001 2.596298e+001 2.928932e+000
    endloop
  endfacet
  facet normal 6.728405e-002 2.011162e-017 -6.728405e-002
    outer loop
      vertex   -1.008012e+002 6.929632e+001 2.183439e-014
      vertex   -9.787225e+001 2.596298e+001 2.928932e+000
      vertex   -1.008012e+002 2.596298e+001 8.881784e-015
    endloop
  endfacet
  facet normal 1.000000e+000 0.000000e+000 0.000000e+000
    outer loop
      vertex   -9.787225e+001 1.559630e+002 7.071068e+000
      vertex   -9.787225e+001 1.126296e+002 7.071068e+000
      vertex   -9.787225e+001 1.559630e+002 2.928932e+000
    endloop
  endfacet
  facet normal 9.515402e-002 0.000000e+000 0.000000e+000
    outer loop
      vertex   -9.787225e+001 1.559630e+002 2.928932e+000
      vertex   -9.787225e+001 1.126296e+002 7.071068e+000
      vertex   -9.787225e+001 1.126296e+002 2.928932e+000
    endloop
  endfacet
  facet normal 9.954625e-001 0.000000e+000 -0.000000e+000
    outer loop
      vertex   -9.787225e+001 1.126296e+002 2.928932e+000
      vertex   -9.787225e+001 1.126296e+002 7.071068e+000
      vertex   -9.787225e+001 6.929632e+001 7.071068e+000
    endloop
  endfacet
  facet normal 9.515403e-002 0.000000e+000 0.000000e+000
    outer loop
      vertex   -9.787225e+001 1.126296e+002 2.928932e+000
      vertex   -9.787225e+001 6.929632e+001 7.071068e+000
      vertex   -9.787225e+001 6.929632e+001 2.928932e+000
    endloop
  endfacet
  facet normal 9.954625e-001 0.000000e+000 -0.000000e+000
    outer loop
      vertex   -9.787225e+001 6.929632e+001 2.928932e+000
      vertex   -9.787225e+001 6.929632e+001 7.071068e+000
      vertex   -9.787225e+001 2.596298e+001 7.071068e+000
    endloop
  endfacet
  facet normal 9.515402e-002 0.000000e+000 0.000000e+000
    outer loop
      vertex   -9.787225e+001 6.929632e+001 2.928932e+000
      vertex   -9.787225e+001 2.596298e+001 7.071068e+000
      vertex   -9.787225e+001 2.596298e+001 2.928932e+000
    endloop
  endfacet
endsolid
solid ascii
  facet normal 0.000000e+000 1.000000e+000 -0.000000e+000
    outer loop
      vertex   -1.218722e+002 1.559630e+002 2.928932e+000
      vertex   -1.318722e+002 1.559630e+002 2.928932e+000
      vertex   -1.218722e+002 1.559630e+002 7.071068e+000
    endloop
  endfacet
  facet normal 0.000000e+000 3.826837e-001 0.000000e+000
    outer loop
      vertex   -1.218722e+002 1.559630e+002 7.071068e+000
      vertex   -1.318722e+002 1.559630e+002 2.928932e+000
      vertex   -1.318722e+002 1.559630e+002 7.071068e+000
    endloop
  endfacet
  facet normal 0.000000e+000 7.071068e-001 0.000000e+000
    outer loop
      vertex   -1.218722e+002 1.559630e+002 7.071068e+000
      vertex   -1.318722e+002 1.559630e+002 7.071068e+000
      vertex   -1.248012e+002 1.559630e+002 1.000000e+001
    endloop
  endfacet
  facet normal 0.000000e+000 3.826838e-001 0.000000e+000
    outer loop
      vertex   -1.248012e+002 1.559630e+002 1.000000e+001
      vertex   -1.318722e+002 1.559630e+002 7.071068e+000
      vertex   -1.289433e+002 1.559630e+002 1.000000e+001
    endloop
  endfacet
  facet normal 0.000000e+000 7.071068e-001 -0.000000e+000
    outer loop
      vertex   -1.248012e+002 1.559630e+002 3.552714e-014
      vertex   -1.289433e+002 1.559630e+002 3.552714e-014
      vertex   -1.218722e+002 1.559630e+002 2.928932e+000
    endloop
  endfacet
  facet normal 0.000000e+000 3.826834e-001 0.000000e+000
    outer loop
      vertex   -1.218722e+002 1.559630e+002 2.928932e+000
      vertex   -1.289433e+002 1.559630e+002 3.552714e-014
      vertex   -1.318722e+002 1.559630e+002 2.928932e+000
    endloop
  endfacet
  facet normal -0.000000e+000 -1.000000e+000 -0.000000e+000
    outer loop
      vertex   -1.218722e+002 2.596298e+001 7.071068e+000
      vertex   -1.318722e+002 2.596298e+001 7.071068e+000
      vertex   -1.218722e+002 2.596298e+001 2.928932e+000
    endloop
  endfacet
  facet normal 0.000000e+000 -3.826837e-001 0.000000e+000
    outer loop
      vertex   -1.218722e+002 2.596298e+001 2.928932e+000
      vertex   -1.318722e+002 2.596298e+001 7.071068e+000
      vertex   -1.318722e+002 2.596298e+001 2.928932e+000
    endloop
  endfacet
  facet normal -0.000000e+000 -7.071068e-001 0.000000e+000
    outer loop
      vertex   -1.218722e+002 2.596298e+001 2.928932e+000
      vertex   -1.318722e+002 2.596298e+001 2.928932e+000
      vertex   -1.248012e+002 2.596298e+001 8.881784e-015
    endloop
  endfacet
  facet normal 0.000000e+000 -3.826838e-001 0.000000e+000
    outer loop
      vertex   -1.248012e+002 2.596298e+001 8.881784e-015
      vertex   -1.318722e+002 2.596298e+001 2.928932e+000
      vertex   -1.289433e+002 2.596298e+001 8.881784e-015
    endloop
  endfacet
  facet normal -0.000000e+000 -7.071068e-001 -0.000000e+000
    outer loop
      vertex   -1.248012e+002 2.596298e+001 1.000000e+001
      vertex   -1.289433e+002 2.596298e+001 1.000000e+001
      vertex   -1.218722e+002 2.596298e+001 7.071068e+000
    endloop
  endfacet
  facet normal 0.000000e+000 -3.826834e-001 0.000000e+000
    outer loop
      vertex   -1.218722e+002 2.596298e+001 7.071068e+000
      vertex   -1.289433e+002 2.596298e+001 1.000000e+001
      vertex   -1.318722e+002 2.596298e+001 7.071068e+000
    endloop
  endfacet
  facet normal 7.071068e-001 0.000000e+000 7.071068e-001
    outer loop
      vertex   -1.248012e+002 1.559630e+002 1.000000e+001
      vertex   -1.248012e+002 1.126296e+002 1.000000e+001
      vertex   -1.218722e+002 1.559630e+002 7.071068e+000
    endloop
  endfacet
  facet normal 6.728405e-002 0.000000e+000 6.728405e-002
    outer loop
      vertex   -1.218722e+002 1.559630e+002 7.071068e+000
      vertex   -1.248012e+002 1.126296e+002 1.000000e+001
      vertex   -1.218722e+002 1.126296e+002 7.071068e+000
    endloop
  endfacet
  facet normal 7.038983e-001 0.000000e+000 7.038983e-001
    outer loop
      vertex   -1.218722e+002 1.126296e+002 7.071068e+000
      vertex   -1.248012e+002 1.126296e+002 1.000000e+001
      vertex   -1.248012e+002 6.929632e+001 1.000000e+001
    endloop
  endfacet
  facet normal 6.728406e-002 0.000000e+000 6.728406e-002
    outer loop
      vertex   -1.218722e+002 1.126296e+002 7.071068e+000
      vertex   -1.248012e+002 6.929632e+001 1.000000e+001
      vertex   -1.218722e+002 6.929632e+001 7.071068e+000
    endloop
  endfacet
  facet normal 7.038983e-001 0.000000e+000 7.038983e-001
    outer loop
      vertex   -1.218722e+002 6.929632e+001 7.071068e+000
      vertex   -1.248012e+002 6.929632e+001 1.000000e+001
      vertex   -1.248012e+002 2.596298e+001 1.000000e+001
    endloop
  endfacet
  facet normal 6.728405e-002 0.000000e+000 6.728405e-002
    outer loop
      vertex   -1.218722e+002 6.929632e+001 7.071068e+000
      vertex   -1.248012e+002 2.596298e+001 1.000000e+001
      vertex   -1.218722e+002 2.596298e+001 7.071068e+000
    endloop
  endfacet
  facet normal -0.000000e+000 0.000000e+000 1.000000e+000
    outer loop
      vertex   -1.289433e+002 1.559630e+002 1.000000e+001
      vertex   -1.289433e+002 1.126296e+002 1.000000e+001
      vertex   -1.248012e+002 1.559630e+002 1.000000e+001
    endloop
  endfacet
  facet normal 0.000000e+000 0.000000e+000 9.515402e-002
    outer loop
      vertex   -1.248012e+002 1.559630e+002 1.000000e+001
      vertex   -1.289433e+002 1.126296e+002 1.000000e+001
      vertex   -1.248012e+002 1.126296e+002 1.000000e+001
    endloop
  endfacet
  facet normal 0.000000e+000 0.000000e+000 9.954625e-001
    outer loop
      vertex   -1.248012e+002 1.126296e+002 1.000000e+001
      vertex   -1.289433e+002 1.126296e+002 1.000000e+001
      vertex   -1.289433e+002 6.929632e+001 1.000000e+001
    endloop
  endfacet
  facet normal 0.000000e+000 0.000000e+000 9.515403e-002
    outer loop
      vertex   -1.248012e+002 1.126296e+002 1.000000e+001
      vertex   -1.289433e+002 6.929632e+001 1.000000e+001
      vertex   -1.248012e+002 6.929632e+001 1.000000e+001
    endloop
  endfacet
  facet normal 0.000000e+000 0.000000e+000 9.954625e-001
    outer loop
      vertex   -1.248012e+002 6.929632e+001 1.000000e+001
      vertex   -1.289433e+002 6.929632e+001 1.000000e+001
      vertex   -1.289433e+002 2.596298e+001 1.000000e+001
    endloop
  endfacet
  facet normal 0.000000e+000 0.000000e+000 9.515402e-002
    outer loop
      vertex   -1.248012e+002 6.929632e+001 1.000000e+001
      vertex   -1.289433e+002 2.596298e+001 1.000000e+001
      vertex   -1.248012e+002 2.596298e+001 1.000000e+001
    endloop
  endfacet
  facet normal -7.071077e-001 0.000000e+000 7.071059e-001
    outer loop
      vertex   -1.318722e+002 1.559630e+002 7.071068e+000
      vertex   -1.318722e+002 1.126296e+002 7.071068e+000
      vertex   -1.289433e+002 1.559630e+002 1.000000e+001
    endloop
  endfacet
  facet normal -6.728405e-002 0.000000e+000 6.728388e-002
    outer loop
      vertex   -1.289433e+002 1.559630e+002 1.000000e+001
      vertex   -1.318722e+002 1.126296e+002 7.071068e+000
      vertex   -1.289433e+002 1.126296e+002 1.000000e+001
    endloop
  endfacet
  facet normal -7.038993e-001 6.938894e-018 7.038974e-001
    outer loop
      vertex   -1.289433e+002 1.126296e+002 1.000000e+001
      vertex   -1.318722e+002 1.126296e+002 7.071068e+000
      vertex   -1.318722e+002 6.929632e+001 7.071068e+000
    endloop
  endfacet
  facet normal -6.728406e-002 0.000000e+000 6.728388e-002
    outer loop
      vertex   -1.289433e+002 1.126296e+002 1.000000e+001
      vertex   -1.318722e+002 6.929632e+001 7.071068e+000
      vertex   -1.289433e+002 6.929632e+001 1.000000e+001
    endloop
  endfacet
  facet normal -7.038993e-001 0.000000e+000 7.038974e-001
    outer loop
      vertex   -1.289433e+002 6.929632e+001 1.000000e+001
      vertex   -1.318722e+002 6.929632e+001 7.071068e+000
      vertex   -1.318722e+002 2.596298e+001 7.071068e+000
    endloop
  endfacet
  facet normal -6.728405e-002 0.000000e+000 6.728388e-002
    outer loop
      vertex   -1.289433e+002 6.929632e+001 1.000000e+001
      vertex   -1.318722e+002 2.596298e+001 7.071068e+000
      vertex   -1.289433e+002 2.596298e+001 1.000000e+001
    endloop
  endfacet
  facet normal -1.000000e+000 0.000000e+000 0.000000e+000
    outer loop
      vertex   -1.318722e+002 1.559630e+002 2.928932e+000
      vertex   -1.318722e+002 1.126296e+002 2.928932e+000
      vertex   -1.318722e+002 1.559630e+002 7.071068e+000
    endloop
  endfacet
  facet normal -9.515402e-002 -0.000000e+000 0.000000e+000
    outer loop
      vertex   -1.318722e+002 1.559630e+002 7.071068e+000
      vertex   -1.318722e+002 1.126296e+002 2.928932e+000
      vertex   -1.318722e+002 1.126296e+002 7.071068e+000
    endloop
  endfacet
  facet normal -9.954625e-001 0.000000e+000 -0.000000e+000
    outer loop
      vertex   -1.318722e+002 1.126296e+002 7.071068e+000
      vertex   -1.318722e+002 1.126296e+002 2.928932e+000
      vertex   -1.318722e+002 6.929632e+001 2.928932e+000
    endloop
  endfacet
  facet normal -9.515403e-002 -0.000000e+000 0.000000e+000
    outer loop
      vertex   -1.318722e+002 1.126296e+002 7.071068e+000
      vertex   -1.318722e+002 6.929632e+001 2.928932e+000
      vertex   -1.318722e+002 6.929632e+001 7.071068e+000
    endloop
  endfacet
  facet normal -9.954625e-001 0.000000e+000 -0.000000e+000
    outer loop
      vertex   -1.318722e+002 6.929632e+001 7.071068e+000
      vertex   -1.318722e+002 6.929632e+001 2.928932e+000
      vertex   -1.318722e+002 2.596298e+001 2.928932e+000
    endloop
  endfacet
  facet normal -9.515402e-002 -0.000000e+000 0.000000e+000
    outer loop
      vertex   -1.318722e+002 6.929632e+001 7.071068e+000
      vertex   -1.318722e+002 2.596298e+001 2.928932e+000
      vertex   -1.318722e+002 2.596298e+001 7.071068e+000
    endloop
  endfacet
  facet normal -7.071077e-001 6.642688e-017 -7.071059e-001
    outer loop
      vertex   -1.289433e+002 1.559630e+002 3.552714e-014
      vertex   -1.289433e+002 1.126296e+002 3.145632e-014
      vertex   -1.318722e+002 1.559630e+002 2.928932e+000
    endloop
  endfacet
  facet normal -6.728405e-002 -0.000000e+000 -6.728388e-002
    outer loop
      vertex   -1.318722e+002 1.559630e+002 2.928932e+000
      vertex   -1.289433e+002 1.126296e+002 3.145632e-014
      vertex   -1.318722e+002 1.126296e+002 2.928932e+000
    endloop
  endfacet
  facet normal -7.038993e-001 -6.938894e-018 -7.038974e-001
    outer loop
      vertex   -1.318722e+002 1.126296e+002 2.928932e+000
      vertex   -1.289433e+002 1.126296e+002 3.145632e-014
      vertex   -1.289433e+002 6.929632e+001 2.183439e-014
    endloop
  endfacet
  facet normal -6.728406e-002 -0.000000e+000 -6.728388e-002
    outer loop
      vertex   -1.318722e+002 1.126296e+002 2.928932e+000
      vertex   -1.289433e+002 6.929632e+001 2.183439e-014
      vertex   -1.318722e+002 6.929632e+001 2.928932e+000
    endloop
  endfacet
  facet normal -7.038993e-001 0.000000e+000 -7.038974e-001
    outer loop
      vertex   -1.318722e+002 6.929632e+001 2.928932e+000
      vertex   -1.289433e+002 6.929632e+001 2.183439e-014
      vertex   -1.289433e+002 2.596298e+001 8.881784e-015
    endloop
  endfacet
  facet normal -6.728405e-002 -0.000000e+000 -6.728388e-002
    outer loop
      vertex   -1.318722e+002 6.929632e+001 2.928932e+000
      vertex   -1.289433e+002 2.596298e+001 8.881784e-015
      vertex   -1.318722e+002 2.596298e+001 2.928932e+000
    endloop
  endfacet
  facet normal 0.000000e+000 9.394192e-017 -1.000000e+000
    outer loop
      vertex   -1.248012e+002 1.559630e+002 3.552714e-014
      vertex   -1.248012e+002 1.126296e+002 3.145632e-014
      vertex   -1.289433e+002 1.559630e+002 3.552714e-014
    endloop
  endfacet
  facet normal 1.232595e-032 8.938950e-018 -9.515402e-002
    outer loop
      vertex   -1.289433e+002 1.559630e+002 3.552714e-014
      vertex   -1.248012e+002 1.126296e+002 3.145632e-014
      vertex   -1.289433e+002 1.126296e+002 3.145632e-014
    endloop
  endfacet
  facet normal 0.000000e+000 2.210371e-016 -9.954625e-001
    outer loop
      vertex   -1.289433e+002 1.126296e+002 3.145632e-014
      vertex   -1.248012e+002 1.126296e+002 3.145632e-014
      vertex   -1.248012e+002 6.929632e+001 2.183439e-014
    endloop
  endfacet
  facet normal 0.000000e+000 2.112844e-017 -9.515403e-002
    outer loop
      vertex   -1.289433e+002 1.126296e+002 3.145632e-014
      vertex   -1.248012e+002 6.929632e+001 2.183439e-014
      vertex   -1.289433e+002 6.929632e+001 2.183439e-014
    endloop
  endfacet
  facet normal 0.000000e+000 2.975499e-016 -9.954625e-001
    outer loop
      vertex   -1.289433e+002 6.929632e+001 2.183439e-014
      vertex   -1.248012e+002 6.929632e+001 2.183439e-014
      vertex   -1.248012e+002 2.596298e+001 8.881784e-015
    endloop
  endfacet
  facet normal 4.930381e-032 2.844213e-017 -9.515402e-002
    outer loop
      vertex   -1.289433e+002 6.929632e+001 2.183439e-014
      vertex   -1.248012e+002 2.596298e+001 8.881784e-015
      vertex   -1.289433e+002 2.596298e+001 8.881784e-015
    endloop
  endfacet
  facet normal 7.071068e-001 0.000000e+000 -7.071068e-001
    outer loop
      vertex   -1.218722e+002 1.559630e+002 2.928932e+000
      vertex   -1.218722e+002 1.126296e+002 2.928932e+000
      vertex   -1.248012e+002 1.559630e+002 3.552714e-014
    endloop
  endfacet
  facet normal 6.728405e-002 6.320793e-018 -6.728405e-002
    outer loop
      vertex   -1.248012e+002 1.559630e+002 3.552714e-014
      vertex   -1.218722e+002 1.126296e+002 2.928932e+000
      vertex   -1.248012e+002 1.126296e+002 3.145632e-014
    endloop
  endfacet
  facet normal 7.038983e-001 0.000000e+000 -7.038983e-001
    outer loop
      vertex   -1.248012e+002 1.126296e+002 3.145632e-014
      vertex   -1.218722e+002 1.126296e+002 2.928932e+000
      vertex   -1.218722e+002 6.929632e+001 2.928932e+000
    endloop
  endfacet
  facet normal 6.728406e-002 1.494007e-017 -6.728406e-002
    outer loop
      vertex   -1.248012e+002 1.126296e+002 3.145632e-014
      vertex   -1.218722e+002 6.929632e+001 2.928932e+000
      vertex   -1.248012e+002 6.929632e+001 2.183439e-014
    endloop
  endfacet
  facet normal 7.038983e-001 0.000000e+000 -7.038983e-001
    outer loop
      vertex   -1.248012e+002 6.929632e+001 2.183439e-014
      vertex   -1.218722e+002 6.929632e+001 2.928932e+000
      vertex   -1.218722e+002 2.596298e+001 2.928932e+000
    endloop
  endfacet
  facet normal 6.728405e-002 2.011162e-017 -6.728405e-002
    outer loop
      vertex   -1.248012e+002 6.929632e+001 2.183439e-014
      vertex   -1.218722e+002 2.596298e+001 2.928932e+000
      vertex   -1.248012e+002 2.596298e+001 8.881784e-015
    endloop
  endfacet
  facet normal 1.000000e+000 0.000000e+000 0.000000e+000
    outer loop
      vertex   -1.218722e+002 1.559630e+002 7.071068e+000
      vertex   -1.218722e+002 1.126296e+002 7.071068e+000
      vertex   -1.218722e+002 1.559630e+002 2.928932e+000
    endloop
  endfacet
  facet normal 9.515402e-002 0.000000e+000 0.000000e+000
    outer loop
      vertex   -1.218722e+002 1.559630e+002 2.928932e+000
      vertex   -1.218722e+002 1.126296e+002 7.071068e+000
      vertex   -1.218722e+002 1.126296e+002 2.928932e+000
    endloop
  endfacet
  facet normal 9.954625e-001 0.000000e+000 -0.000000e+000
    outer loop
      vertex   -1.218722e+002 1.126296e+002 2.928932e+000
      vertex   -1.218722e+002 1.126296e+002 7.071068e+000
      vertex   -1.218722e+002 6.929632e+001 7.071068e+000
    endloop
  endfacet
  facet normal 9.515403e-002 0.000000e+000 0.000000e+000
    outer loop
      vertex   -1.218722e+002 1.126296e+002 2.928932e+000
      vertex   -1.218722e+002 6.929632e+001 7.071068e+000
      vertex   -1.218722e+002 6.929632e+001 2.928932e+000
    endloop
  endfacet
  facet normal 9.954625e-001 0.000000e+000 -0.000000e+000
    outer loop
      vertex   -1.218722e+002 6.929632e+001 2.928932e+000
      vertex   -1.218722e+002 6.929632e+001 7.071068e+000
      vertex   -1.218722e+002 2.596298e+001 7.071068e+000
    endloop
  endfacet
  facet normal 9.515402e-002 0.000000e+000 0.000000e+000
    outer loop
      vertex   -1.218722e+002 6.929632e+001 2.928932e+000
      vertex   -1.218722e+002 2.596298e+001 7.071068e+000
      vertex   -1.218722e+002 2.596298e+001 2.928932e+000
    endloop
  endfacet
endsolid
